<?xml version="1.0" encoding="UTF-8"?>
<svg version="1.1" xmlns="http://www.w3.org/2000/svg" width="347" height="376">
<path d="M0 0 C0.99 0 1.98 0 3 0 C3.33 0.99 3.66 1.98 4 3 C5.1446875 2.2575 5.1446875 2.2575 6.3125 1.5 C9 0 9 0 12 0 C11.46274105 3.37705625 10.88935377 6.696686 10 10 C10.928125 9.01 10.928125 9.01 11.875 8 C14 6 14 6 16 6 C15.34 7.98 14.68 9.96 14 12 C17.05270463 12.15811388 17.05270463 12.15811388 20 11 C19.855625 11.825 19.71125 12.65 19.5625 13.5 C18.92543876 17.00126566 18.92543876 17.00126566 18.875 20.59375 C18.15822327 26.3385144 14.74146662 30.40943937 11.4375 35 C5.90504084 42.99140706 1.27862915 50.89267238 -2.86425781 59.65869141 C-5.28040462 64.63952716 -7.8753716 69.53068242 -10.4375 74.4375 C-10.99912842 75.51733154 -11.56075684 76.59716309 -12.1394043 77.7097168 C-14.59658372 82.42768729 -17.06387632 87.13875994 -19.58984375 91.8203125 C-23.48337393 99.03954945 -27.09794082 106.26830794 -30.32861328 113.80908203 C-32.71996975 119.39076004 -35.19886545 124.92692534 -37.75 130.4375 C-38.31557617 131.69119385 -38.31557617 131.69119385 -38.89257812 132.97021484 C-39.43301758 134.1277124 -39.43301758 134.1277124 -39.984375 135.30859375 C-40.30116211 135.99751709 -40.61794922 136.68644043 -40.94433594 137.39624023 C-42 139 -42 139 -45 140 C-46.12853834 141.93004237 -46.12853834 141.93004237 -46.97265625 144.33984375 C-47.31490234 145.23896484 -47.65714844 146.13808594 -48.00976562 147.06445312 C-48.35716797 148.01255859 -48.70457031 148.96066406 -49.0625 149.9375 C-49.41376953 150.85080078 -49.76503906 151.76410156 -50.12695312 152.70507812 C-52.38200792 158.72850426 -53.94524235 164.65681666 -55 171 C-52.15309596 171 -49.43136869 170.77353795 -46.59765625 170.51171875 C-38.1184272 169.84698108 -29.65098739 169.81392416 -21.14916992 169.81469727 C-18.41114456 169.81247864 -15.67350303 169.79416212 -12.93554688 169.77539062 C-11.18489719 169.77246153 -9.43424563 169.7704735 -7.68359375 169.76953125 C-6.46330727 169.75875298 -6.46330727 169.75875298 -5.21836853 169.74775696 C-1.34673837 169.76345967 1.72468749 169.78481545 5 172 C5 173.65 5 175.3 5 177 C5.99 177 6.98 177 8 177 C9.62581905 179.48654678 10.02749161 180.7297304 9.72265625 183.7265625 C8.43105252 189.57717831 6.28022921 197.84160918 1.046875 201.28515625 C-0.875 201.8125 -0.875 201.8125 -4 202 C-3.360625 202.474375 -2.72125 202.94875 -2.0625 203.4375 C0.84850272 207.05420035 0.80649782 210.47204894 1 215 C-3.2538354 217.92818256 -7.36159546 219.05042898 -12.3125 220.1875 C-13.05306641 220.36474609 -13.79363281 220.54199219 -14.55664062 220.72460938 C-16.36930342 221.15730953 -18.18442027 221.57970716 -20 222 C-19.02675781 222.61101562 -18.05351562 223.22203125 -17.05078125 223.8515625 C-14 226 -14 226 -13.1875 228.375 C-13.125625 229.24125 -13.06375 230.1075 -13 231 C-12.773125 232.03125 -12.54625 233.0625 -12.3125 234.125 C-12 237 -12 237 -14 240 C-16.57421875 240.6953125 -16.57421875 240.6953125 -19.6875 241.125 C-20.76644531 241.27582031 -21.84539062 241.42664063 -22.95703125 241.58203125 C-23.96121094 241.71996094 -24.96539062 241.85789063 -26 242 C-27.918125 242.4021875 -27.918125 242.4021875 -29.875 242.8125 C-33.72159958 243.04329597 -35.75150175 241.98079162 -39 240 C-39.66 240.66 -40.32 241.32 -41 242 C-42.6777567 241.72793135 -44.34450469 241.38499891 -46 241 C-47.6662553 240.9629721 -49.33401319 240.95240038 -51 241 C-51 240.67 -51 240.34 -51 240 C-52.051875 239.855625 -53.10375 239.71125 -54.1875 239.5625 C-55.445625 239.376875 -56.70375 239.19125 -58 239 C-59.3921875 238.814375 -59.3921875 238.814375 -60.8125 238.625 C-63 238 -63 238 -65 235 C-65 234.34 -65 233.68 -65 233 C-65.99 232.67 -66.98 232.34 -68 232 C-68.33 230.35 -68.66 228.7 -69 227 C-70.39147254 230.9960619 -71.50934279 234.94300833 -72.40234375 239.078125 C-72.77601074 240.80772461 -72.77601074 240.80772461 -73.15722656 242.57226562 C-73.4147168 243.78591797 -73.67220703 244.99957031 -73.9375 246.25 C-74.20401367 247.49458984 -74.47052734 248.73917969 -74.74511719 250.02148438 C-76.40432907 257.87278565 -77.91861108 265.72512969 -79.06225586 273.66894531 C-80.03387193 280.16767565 -80.03387193 280.16767565 -82 283 C-85.125 284.25 -85.125 284.25 -88 285 C-88.33 287.31 -88.66 289.62 -89 292 C-91.3125 292.625 -91.3125 292.625 -94 293 C-94.99 292.34 -95.98 291.68 -97 291 C-99.64632287 291.3121764 -99.64632287 291.3121764 -102 292 C-102.33 291.01 -102.66 290.02 -103 289 C-103.66 289 -104.32 289 -105 289 C-106.49386624 291.98773248 -106.14371602 295.0403158 -106.125 298.3125 C-106.12757813 299.62863281 -106.13015625 300.94476563 -106.1328125 302.30078125 C-106.02233104 305.37801487 -105.64755928 308.01204931 -105 311 C-104.88321201 313.67678073 -104.9545494 316.31841457 -105 319 C-106.32 319 -107.64 319 -109 319 C-109.01458252 318.44763672 -109.02916504 317.89527344 -109.04418945 317.32617188 C-109.39737724 305.27535454 -110.35286775 293.77058179 -113 282 C-113.33 283.32 -113.66 284.64 -114 286 C-114.66 286 -115.32 286 -116 286 C-116.66 287.32 -117.32 288.64 -118 290 C-122.18000279 288.25020605 -123.18734389 286.36340023 -125.03076172 282.37695312 C-126.4027394 279.01232473 -127.52964575 275.59007765 -128.63867188 272.13110352 C-132.68048346 259.52607747 -138.19954228 248.33096177 -145 237 C-148.72614153 238.11854586 -148.72614153 238.11854586 -151 241 C-155.61351562 243.54957442 -160.49860888 245.5866184 -165.31640625 247.71875 C-168.05520574 248.97023925 -168.05520574 248.97023925 -170.71484375 250.65625 C-173 252 -173 252 -175 252 C-175.33 252.99 -175.66 253.98 -176 255 C-178.69628906 256.09082031 -178.69628906 256.09082031 -182.265625 257.078125 C-182.89603699 257.25382019 -183.52644897 257.42951538 -184.17596436 257.61053467 C-185.51259294 257.97960283 -186.85098562 258.34233138 -188.19091797 258.69921875 C-190.23283748 259.24540922 -192.26660852 259.81634 -194.30078125 260.390625 C-195.60114936 260.74630556 -196.90191962 261.10051979 -198.203125 261.453125 C-199.38551758 261.77442383 -200.56791016 262.09572266 -201.78613281 262.42675781 C-206.56983011 263.28000312 -208.97879953 262.68080032 -213 260 C-215.28648848 259.75892674 -215.28648848 259.75892674 -217.6875 259.875 C-218.49574219 259.89304687 -219.30398437 259.91109375 -220.13671875 259.9296875 C-220.75160156 259.95289063 -221.36648437 259.97609375 -222 260 C-222 259.34 -222 258.68 -222 258 C-223.423125 258.0928125 -223.423125 258.0928125 -224.875 258.1875 C-225.90625 258.125625 -226.9375 258.06375 -228 258 C-230 255 -230 255 -230.0625 253.0625 C-228.32338592 249.68657267 -225.33224371 248.69641498 -222 247 C-224.31 246.01 -226.62 245.02 -229 244 C-228.67 243.01 -228.34 242.02 -228 241 C-227.34 241 -226.68 241 -226 241 C-226 240.34 -226 239.68 -226 239 C-226.99 239 -227.98 239 -229 239 C-229 238.34 -229 237.68 -229 237 C-231.31 237 -233.62 237 -236 237 C-236.33 234.69 -236.66 232.38 -237 230 C-229.09415393 224.75423861 -220.82998726 221.32007521 -212 218 C-212.73605469 218.03480469 -213.47210938 218.06960937 -214.23046875 218.10546875 C-224.1008271 218.37928318 -224.1008271 218.37928318 -228 215 C-229.50275341 211.99449319 -229.58765005 210.33001693 -229 207 C-227.08889435 205.40233309 -225.13734729 204.25663833 -222.9453125 203.078125 C-220.8497962 202.03359962 -220.8497962 202.03359962 -219 200 C-220.134375 199.360625 -221.26875 198.72125 -222.4375 198.0625 C-225.875 196.125 -225.875 196.125 -227 195 C-227.04063832 193.33382885 -227.042721 191.66611905 -227 190 C-220.4000209 187.45263965 -214.19231358 186.43089858 -207.1796875 185.60546875 C-202.60712453 185.00577045 -198.16915235 183.94486199 -193.6875 182.875 C-187.30679634 181.36511406 -181.59581245 180.57446371 -175 181 C-176.267718 175.83110858 -177.99982563 171.98196059 -180.875 167.4375 C-184.9714556 160.80645969 -188.84767485 154.06778785 -192.625 147.25 C-193.1701123 146.28505615 -193.71522461 145.3201123 -194.27685547 144.32592773 C-194.77588379 143.41915283 -195.27491211 142.51237793 -195.7890625 141.578125 C-196.23975098 140.76762695 -196.69043945 139.95712891 -197.15478516 139.12207031 C-198 137 -198 137 -197 134 C-196.40832031 134.99 -195.81664062 135.98 -195.20703125 137 C-191.19556688 143.70387035 -187.17711663 150.39746082 -183 157 C-188.90440879 145.11696498 -194.92949305 133.29891649 -201 121.5 C-203.94400922 115.77788828 -206.88262059 110.05312434 -209.80957031 104.32226562 C-210.97737478 102.04413681 -212.15603737 99.77188221 -213.3359375 97.5 C-214.05767498 96.09394669 -214.77904828 94.68770637 -215.5 93.28125 C-215.82629395 92.66028442 -216.15258789 92.03931885 -216.48876953 91.39953613 C-219.19465983 86.07955996 -220.57384507 80.8821531 -221.4453125 74.98828125 C-222.14726611 71.20662978 -223.47618422 67.7528261 -224.875 64.1875 C-225.41759544 62.76728157 -225.95926921 61.34671067 -226.5 59.92578125 C-226.75910156 59.24854004 -227.01820313 58.57129883 -227.28515625 57.87353516 C-231.45690673 46.93978749 -231.45690673 46.93978749 -231 41 C-228.525 40.505 -228.525 40.505 -226 40 C-225.59007812 40.48210938 -225.18015625 40.96421875 -224.7578125 41.4609375 C-224.21898437 42.09257813 -223.68015625 42.72421875 -223.125 43.375 C-222.59132813 44.00148437 -222.05765625 44.62796875 -221.5078125 45.2734375 C-220.38567993 46.55836651 -219.20628025 47.79371975 -218 49 C-217.67 48.34 -217.34 47.68 -217 47 C-216.34 47 -215.68 47 -215 47 C-215.33 44.03 -215.66 41.06 -216 38 C-212.16263678 38.95934081 -211.40339772 39.23609263 -209 42 C-208.34 41.01 -207.68 40.02 -207 39 C-203.92463146 39.65900754 -201.92264434 40.53867783 -199 42 C-199.99 35.565 -199.99 35.565 -201 29 C-197.08421328 30.95789336 -196.39062762 31.42074102 -194.2578125 34.875 C-193.75580322 35.68267822 -193.25379395 36.49035645 -192.73657227 37.32250977 C-192.20475342 38.20608154 -191.67293457 39.08965332 -191.125 40 C-190.56417725 40.919021 -190.00335449 41.83804199 -189.42553711 42.78491211 C-180.19782381 58.09977691 -171.92258082 73.9778274 -164 90 C-164.33 86.37 -164.66 82.74 -165 79 C-162 82 -162 82 -161 84 C-160.34 84 -159.68 84 -159 84 C-158.7525 84.78375 -158.505 85.5675 -158.25 86.375 C-157.28591894 89.10606107 -157.28591894 89.10606107 -155.10595703 89.91235352 C-148.64496575 93.24920909 -145.17367541 103.26894729 -142.125 109.5625 C-141.33615612 111.16807618 -140.54708523 112.77354084 -139.7578125 114.37890625 C-139.33290527 115.251521 -138.90799805 116.12413574 -138.47021484 117.02319336 C-137.39002632 119.21029709 -136.2882061 121.38675119 -135.17431641 123.55688477 C-129.94163158 133.76658261 -125.44897348 144.1903292 -121.125 154.8125 C-120.1318469 157.24302264 -119.13690297 159.67276953 -118.13815308 162.10099792 C-117.52474827 163.59315302 -116.91464406 165.08667066 -116.30838013 166.58174133 C-115.06459915 169.61425934 -113.82529444 172.26205834 -112 175 C-109.33346095 175.36460453 -109.33346095 175.36460453 -106.375 175.1875 C-105.37210938 175.16042969 -104.36921875 175.13335937 -103.3359375 175.10546875 C-102.56507813 175.07066406 -101.79421875 175.03585938 -101 175 C-101 176.65 -101 178.3 -101 180 C-101.66 180 -102.32 180 -103 180 C-103 180.99 -103 181.98 -103 183 C-103.99 183 -104.98 183 -106 183 C-105.67 184.32 -105.34 185.64 -105 187 C-106.98 187.99 -106.98 187.99 -109 189 C-107.68 192.3 -106.36 195.6 -105 199 C-103.40633995 195.81267989 -102.73146823 194.32360948 -102.2890625 191.0234375 C-102.17820313 190.26933594 -102.06734375 189.51523438 -101.953125 188.73828125 C-101.73771445 187.1868124 -101.52663428 185.6347349 -101.3203125 184.08203125 C-100.5597189 178.97395377 -99.15983016 174.61487893 -97.15087891 169.86669922 C-95.80180303 166.50631548 -94.66570331 163.09263741 -93.5546875 159.6484375 C-93.34110092 158.98911728 -93.12751434 158.32979706 -92.90745544 157.65049744 C-92.46097071 156.27159215 -92.01482646 154.89257659 -91.56900024 153.51345825 C-86.75438346 138.67793467 -81.28928339 124.28128194 -75 110 C-74.38571726 108.57464994 -73.77236545 107.14889815 -73.16015625 105.72265625 C-71.16703728 101.12049299 -69.09379986 96.55713892 -67 92 C-66.72738342 91.40622559 -66.45476685 90.81245117 -66.17388916 90.20068359 C-49.30792484 53.50348627 -49.30792484 53.50348627 -40 38 C-39.47164551 37.11417236 -39.47164551 37.11417236 -38.93261719 36.21044922 C-37.02096443 33.15562448 -36.17065063 32.07219834 -32.75 30.625 C-31.8425 30.41875 -30.935 30.2125 -30 30 C-30.4682121 34.77576339 -31.24331998 38.04476345 -34 42 C-34.66 41.67 -35.32 41.34 -36 41 C-36 40.34 -36 39.68 -36 39 C-36.66 39 -37.32 39 -38 39 C-38.2678833 39.70543945 -38.5357666 40.41087891 -38.81176758 41.13769531 C-40.05473097 44.13184013 -41.48648247 46.93645007 -43.01171875 49.796875 C-43.60194824 50.91344482 -44.19217773 52.03001465 -44.80029297 53.18041992 C-45.10916443 53.76407318 -45.41803589 54.34772644 -45.73626709 54.94906616 C-51.43568577 65.73956326 -56.70831232 76.56087757 -61 88 C-60.60022949 87.29431885 -60.20045898 86.5886377 -59.78857422 85.86157227 C-51.19274806 70.7650164 -42.23015922 55.99915263 -32.5625 41.5625 C-32.10913269 40.88438263 -31.65576538 40.20626526 -31.18865967 39.50759888 C-24.96276456 30.21388161 -18.5380934 21.07602901 -12 12 C-11.57526398 11.38126007 -11.15052795 10.76252014 -10.71292114 10.12503052 C-10.28373383 9.50441742 -9.85454651 8.88380432 -9.41235352 8.24438477 C-9.02797623 7.68058609 -8.64359894 7.11678741 -8.24757385 6.53590393 C-6.20768522 4.02457127 -3.7710815 2.63745725 -1 1 C-0.67 0.67 -0.34 0.34 0 0 Z M-161 86 C-160 88 -160 88 -160 88 Z M-151 105 C-150.91484985 122.71123036 -139.82241375 141.08953376 -133 157 C-131.92760703 153.78282108 -132.06390515 152.94716388 -132.9375 149.8125 C-133.288125 148.554375 -133.63875 147.29625 -134 146 C-133.34 146 -132.68 146 -132 146 C-130.63838312 149.39072287 -129.30189358 152.79026964 -127.9765625 156.1953125 C-127.19325969 158.17209357 -126.40938819 160.14864936 -125.625 162.125 C-125.23828125 163.12660156 -124.8515625 164.12820312 -124.453125 165.16015625 C-124.06898438 166.12050781 -123.68484375 167.08085937 -123.2890625 168.0703125 C-122.94568848 168.94445801 -122.60231445 169.81860352 -122.24853516 170.71923828 C-120.8499484 173.27410678 -119.42976117 174.44042939 -117 176 C-117.58774742 171.67387285 -118.64246896 167.98316571 -120.30078125 163.94921875 C-120.77757324 162.78753174 -121.25436523 161.62584473 -121.74560547 160.42895508 C-122.26713179 159.18148042 -122.78944849 157.93433594 -123.3125 156.6875 C-123.57677795 156.05282806 -123.84105591 155.41815613 -124.11334229 154.76425171 C-127.97476265 145.50614922 -132.04624677 136.36327903 -136.375 127.3125 C-136.84977783 126.31758545 -137.32455566 125.3226709 -137.8137207 124.29760742 C-142.34642305 114.81880271 -142.34642305 114.81880271 -148 106 C-148.99 105.67 -149.98 105.34 -151 105 Z M-85 148 C-84 150 -84 150 -84 150 Z M-86 150 C-85 153 -85 153 -85 153 Z M-87 153 C-90.48395745 161.21688079 -93.78350557 169.0860322 -95 178 C-91.73477116 174.73477116 -90.81119654 170.36637203 -89.3125 166.0625 C-88.97927734 165.14275391 -88.64605469 164.22300781 -88.30273438 163.27539062 C-87.99271484 162.39173828 -87.68269531 161.50808594 -87.36328125 160.59765625 C-87.07751221 159.78820557 -86.79174316 158.97875488 -86.49731445 158.14477539 C-85.7649123 155.83469089 -85.7649123 155.83469089 -87 153 Z M-132 158 C-131 160 -131 160 -131 160 Z M-182 159 C-181 161 -181 161 -181 161 Z M-181 161 C-180 163 -180 163 -180 163 Z M-54 174 C-54 174.66 -54 175.32 -54 176 C-54.99 176.33 -55.98 176.66 -57 177 C-57.97073912 178.77182759 -57.97073912 178.77182759 -58.60546875 180.96484375 C-58.99702148 182.16463867 -58.99702148 182.16463867 -59.39648438 183.38867188 C-59.65751953 184.22978516 -59.91855469 185.07089844 -60.1875 185.9375 C-60.46013672 186.77474609 -60.73277344 187.61199219 -61.01367188 188.47460938 C-62.46647612 192.65740608 -62.46647612 192.65740608 -63 197 C-61.76765625 197.04898438 -60.5353125 197.09796875 -59.265625 197.1484375 C-44.22842832 197.80779002 -44.22842832 197.80779002 -37.8125 199.0625 C-30.58003316 200.45138054 -23.33084353 200.16745582 -16 200 C-16 199.67 -16 199.34 -16 199 C-22.93 198.67 -29.86 198.34 -37 198 C-37 196.35 -37 194.7 -37 193 C-37.66 193 -38.32 193 -39 193 C-38.67 192.34 -38.34 191.68 -38 191 C-38.99 191 -39.98 191 -41 191 C-41 190.34 -41 189.68 -41 189 C-40.2575 189.20625 -39.515 189.4125 -38.75 189.625 C-35.67669159 190.04408751 -34.57213134 189.61949011 -32 188 C-40.5387642 185.4053628 -40.5387642 185.4053628 -49 187 C-49 186.34 -49 185.68 -49 185 C-48.34 185 -47.68 185 -47 185 C-47.165 184.4225 -47.33 183.845 -47.5 183.25 C-48 181 -48 181 -48 177 C-49.32 176.67 -50.64 176.34 -52 176 C-52 175.34 -52 174.68 -52 174 C-52.66 174 -53.32 174 -54 174 Z M-96 179 C-95 182 -95 182 -95 182 Z M-97 182 C-96 185 -96 185 -96 185 Z M-98 185 C-97 189 -97 189 -97 189 Z M-99 189 C-98 192 -98 192 -98 192 Z M-114 191 C-114.33 191.66 -114.66 192.32 -115 193 C-114.01 194.485 -114.01 194.485 -113 196 C-112.34 196 -111.68 196 -111 196 C-111.33 194.35 -111.66 192.7 -112 191 C-112.66 191 -113.32 191 -114 191 Z M-100 193 C-99 195 -99 195 -99 195 Z M-168 196 C-168 196.66 -168 197.32 -168 198 C-168.763125 197.9175 -169.52625 197.835 -170.3125 197.75 C-175.59112006 198.10787255 -180.11589013 200.05330852 -185 202 C-185 202.33 -185 202.66 -185 203 C-184.11957031 203.10957031 -183.23914063 203.21914062 -182.33203125 203.33203125 C-181.17058594 203.49058594 -180.00914062 203.64914063 -178.8125 203.8125 C-177.08966797 204.03873047 -177.08966797 204.03873047 -175.33203125 204.26953125 C-171.95875357 205.0090423 -169.91439241 206.22773434 -167 208 C-163.26906622 207.77752165 -163.26906622 207.77752165 -160 207 C-160.53027795 202.4926374 -162.19611275 199.5460927 -165 196 C-165.99 196 -166.98 196 -168 196 Z M-12 200 C-12 200.33 -12 200.66 -12 201 C-10.02 201 -8.04 201 -6 201 C-6 200.67 -6 200.34 -6 200 C-7.98 200 -9.96 200 -12 200 Z M-103 206 C-102 208 -102 208 -102 208 Z M-68 216 C-68.66 218.97 -69.32 221.94 -70 225 C-68.02 225.99 -68.02 225.99 -66 227 C-61.77895001 224.27809315 -61.77895001 224.27809315 -58 221 C-56.68 220.34 -55.36 219.68 -54 219 C-58.455 218.01 -58.455 218.01 -63 217 C-63 216.67 -63 216.34 -63 216 C-64.65 216 -66.3 216 -68 216 Z M-157.625 231 C-158.33140625 231.19078125 -159.0378125 231.3815625 -159.765625 231.578125 C-161.51102083 232.0498536 -163.2555903 232.52463775 -165 233 C-165 233.33 -165 233.66 -165 234 C-159.06 233.67 -153.12 233.34 -147 233 C-147.33 231.68 -147.66 230.36 -148 229 C-151.31581983 229 -154.44433805 230.13147976 -157.625 231 Z " fill="#EE5702" transform="translate(276,13)"/>
<path d="M0 0 C3.08603789 0.10286793 5.76424114 0.40117967 8.75 1.125 C8.75 1.785 8.75 2.445 8.75 3.125 C9.37648438 3.125 10.00296875 3.125 10.6484375 3.125 C15.68229167 3.125 20.71614583 3.125 25.75 3.125 C25.75 2.135 25.75 1.145 25.75 0.125 C27.07 0.125 28.39 0.125 29.75 0.125 C29.75 1.115 29.75 2.105 29.75 3.125 C33.38 3.125 37.01 3.125 40.75 3.125 C41.67538169 6.82652678 41.83174162 7.75958162 40.75 11.125 C37.11456106 12.262098 33.69552087 12.25429635 29.90234375 12.2578125 C29.24923721 12.25876923 28.59613068 12.25972595 27.92323303 12.26071167 C26.54737247 12.2613901 25.17150865 12.25955939 23.7956543 12.25537109 C21.69117046 12.25000935 19.58689919 12.25533187 17.48242188 12.26171875 C16.1432287 12.26105808 14.80403565 12.25977714 13.46484375 12.2578125 C11.64134399 12.25612061 11.64134399 12.25612061 9.78100586 12.25439453 C6.75 12.125 6.75 12.125 3.75 11.125 C2.5434375 11.4034375 2.5434375 11.4034375 1.3125 11.6875 C-1.66385129 12.19565754 -2.74473271 11.70239052 -5.25 10.125 C-4.92 9.465 -4.59 8.805 -4.25 8.125 C-2.93 8.125 -1.61 8.125 -0.25 8.125 C-1.57 7.465 -2.89 6.805 -4.25 6.125 C-4.292721 4.45888095 -4.29063832 2.79117115 -4.25 1.125 C-3.25 0.125 -3.25 0.125 0 0 Z M9.75 5.125 C9.75 8.125 9.75 8.125 9.75 8.125 Z M32.75 5.125 C32.75 6.115 32.75 7.105 32.75 8.125 C33.41 8.455 34.07 8.785 34.75 9.125 C34.09 7.805 33.43 6.485 32.75 5.125 Z M21.75 6.125 C22.08 7.115 22.41 8.105 22.75 9.125 C23.74 8.795 24.73 8.465 25.75 8.125 C25.75 7.465 25.75 6.805 25.75 6.125 C24.43 6.125 23.11 6.125 21.75 6.125 Z " fill="#E85D16" transform="translate(268.25,290.875)"/>
<path d="M0 0 C0.88336837 2.4667645 1.1312406 3.63859372 0.22265625 6.140625 C-0.35162109 7.18476562 -0.35162109 7.18476562 -0.9375 8.25 C-1.50791016 9.30960938 -1.50791016 9.30960938 -2.08984375 10.390625 C-2.39019531 10.92171875 -2.69054687 11.4528125 -3 12 C-3.66 11.67 -4.32 11.34 -5 11 C-5 10.34 -5 9.68 -5 9 C-5.66 9 -6.32 9 -7 9 C-7.2678833 9.70543945 -7.5357666 10.41087891 -7.81176758 11.13769531 C-9.05473097 14.13184013 -10.48648247 16.93645007 -12.01171875 19.796875 C-12.60194824 20.91344482 -13.19217773 22.03001465 -13.80029297 23.18041992 C-14.10916443 23.76407318 -14.41803589 24.34772644 -14.73626709 24.94906616 C-20.4432284 35.75384345 -25.623919 46.57709546 -30 58 C-29.5059668 57.1529248 -29.01193359 56.30584961 -28.50292969 55.43310547 C-26.65599784 52.26746405 -24.80662601 49.10325376 -22.95654297 45.93945312 C-22.15868393 44.57427788 -21.36147239 43.20872398 -20.56494141 41.84277344 C-19.41482021 39.87072583 -18.26231761 37.9000866 -17.109375 35.9296875 C-16.75816589 35.32631561 -16.40695679 34.72294373 -16.04510498 34.10128784 C-13.8202397 30.30552244 -11.47035226 26.63771479 -9 23 C-7.70356977 27.69955958 -8.06522462 30.52583194 -10 35 C-10.99 35 -11.98 35 -13 35 C-13 35.99 -13 36.98 -13 38 C-14.485 38.495 -14.485 38.495 -16 39 C-16.33 39.66 -16.66 40.32 -17 41 C-16.34 41 -15.68 41 -15 41 C-14.67 42.65 -14.34 44.3 -14 46 C-15.485 46.495 -15.485 46.495 -17 47 C-17.103125 47.928125 -17.20625 48.85625 -17.3125 49.8125 C-18.00531495 53.02464205 -18.3879169 54.11930017 -21 56 C-21.66 56 -22.32 56 -23 56 C-23.66 55.34 -24.32 54.68 -25 54 C-25.70074844 57.153368 -26 59.72724974 -26 63 C-26.99 63.99 -26.99 63.99 -28 65 C-28.99 65 -29.98 65 -31 65 C-30.67 63.35 -30.34 61.7 -30 60 C-31.98 60.495 -31.98 60.495 -34 61 C-34 61.99 -34 62.98 -34 64 C-34.66 64 -35.32 64 -36 64 C-33.42582998 55.23020405 -29.43823106 47.18376032 -25.4375 39 C-25.08095337 38.26721832 -24.72440674 37.53443665 -24.35705566 36.77944946 C-20.21831843 28.28750555 -16.0399603 19.83632526 -11.25 11.6875 C-10.86900146 11.03845703 -10.48800293 10.38941406 -10.09545898 9.72070312 C-7.38882731 5.28043194 -5.03713726 1.67904575 0 0 Z " fill="#EA5B09" transform="translate(245,43)"/>
<path d="M0 0 C3 3 3 3 4 5 C4.66 5 5.32 5 6 5 C6.2475 5.78375 6.495 6.5675 6.75 7.375 C7.71408106 10.10606107 7.71408106 10.10606107 9.89404297 10.91235352 C16.35503425 14.24920909 19.82632459 24.26894729 22.875 30.5625 C23.66384388 32.16807618 24.45291477 33.77354084 25.2421875 35.37890625 C25.66709473 36.25144043 26.09200195 37.12397461 26.52978516 38.02294922 C27.61103235 40.21237604 28.70854166 42.38814684 29.82568359 44.55908203 C35.04664757 54.75100314 39.54717779 65.15204983 43.875 75.75 C44.86902915 78.16986688 45.86475925 80.58902122 46.86184692 83.00762939 C47.47389296 84.4936958 48.08393629 85.9805892 48.69161987 87.46844482 C50.02005479 90.70699564 51.36720889 93.90178136 53 97 C51.35 97 49.7 97 48 97 C47.72961914 96.2879541 47.45923828 95.5759082 47.18066406 94.84228516 C38.89725581 73.13392313 30.44777525 51.24756586 18.328125 31.34375 C17 29 17 29 17 27 C16.34 27 15.68 27 15 27 C14.34 27.66 13.68 28.32 13 29 C13 27.68 13 26.36 13 25 C14.32 25 15.64 25 17 25 C16.401875 24.505 15.80375 24.01 15.1875 23.5 C13.05315843 21.06075249 12.49709236 19.80426981 11.5625 16.8125 C10.90365565 14.74511001 10.90365565 14.74511001 10 13 C7.62116511 11.6740144 7.62116511 11.6740144 5 12 C3.02 12.99 3.02 12.99 1 14 C0.67 9.38 0.34 4.76 0 0 Z M4 7 C5 9 5 9 5 9 Z " fill="#C4703A" transform="translate(111,92)"/>
<path d="M0 0 C4.02992782 0.55312735 8.02022924 1.1558062 12 2 C12.79953138 5.28696233 13.09658936 6.71023192 12 10 C12.66 10 13.32 10 14 10 C13.67 10.99 13.34 11.98 13 13 C11.73736328 12.73703125 11.73736328 12.73703125 10.44921875 12.46875 C6.74788348 11.96573728 3.52634738 12.14971214 -0.1875 12.5 C-6.67581047 13.10806318 -6.67581047 13.10806318 -10 12 C-11.56118428 11.93259135 -13.1250252 11.91485544 -14.6875 11.9375 C-15.49574219 11.94652344 -16.30398437 11.95554687 -17.13671875 11.96484375 C-17.75160156 11.97644531 -18.36648437 11.98804688 -19 12 C-19.02688151 10.35425434 -19.04634123 8.70838587 -19.0625 7.0625 C-19.07410156 6.14597656 -19.08570313 5.22945313 -19.09765625 4.28515625 C-19 2 -19 2 -18 1 C-14.24187669 0.71091359 -11.57643309 0.76697386 -8.0625 2.1875 C-6 4 -6 4 -5.6875 6.6875 C-5.8421875 7.8321875 -5.8421875 7.8321875 -6 9 C-5.34 9 -4.68 9 -4 9 C-4 7.35 -4 5.7 -4 4 C-3.01 3.67 -2.02 3.34 -1 3 C-0.67 2.01 -0.34 1.02 0 0 Z M-10 5 C-9 7 -9 7 -9 7 Z M-15 8 C-15 8.66 -15 9.32 -15 10 C-14.34 10 -13.68 10 -13 10 C-13 9.34 -13 8.68 -13 8 C-13.66 8 -14.32 8 -15 8 Z " fill="#DA6726" transform="translate(224,290)"/>
<path d="M0 0 C0.68707555 2.49064888 1 4.37886292 1 7 C1.66 7.33 2.32 7.66 3 8 C2.7733667 8.55349121 2.5467334 9.10698242 2.31323242 9.67724609 C1.26655448 12.24124686 0.22700953 14.80808506 -0.8125 17.375 C-1.16892578 18.24511719 -1.52535156 19.11523438 -1.89257812 20.01171875 C-4.27910096 25.92328908 -6.27761674 31.86220259 -8 38 C-7.34 38 -6.68 38 -6 38 C-6.66 40.31 -7.32 42.62 -8 45 C-8.66 45 -9.32 45 -10 45 C-10.33 48.3 -10.66 51.6 -11 55 C-11.66 54.67 -12.32 54.34 -13 54 C-13.99 56.475 -13.99 56.475 -15 59 C-16.31277028 54.62978468 -15.5680661 50.7915941 -14.8125 46.375 C-14.64137695 45.23998047 -14.64137695 45.23998047 -14.46679688 44.08203125 C-13.61826509 38.99084054 -12.1251855 34.53296525 -10.12573242 29.78466797 C-7.88811507 24.24958588 -6.11352693 18.54449236 -4.25 12.875 C-3.83878906 11.63234375 -3.42757812 10.3896875 -3.00390625 9.109375 C-1.99983745 6.07381817 -0.99860127 3.03735893 0 0 Z M-9 39 C-8 42 -8 42 -8 42 Z " fill="#D16522" transform="translate(189,153)"/>
<path d="M0 0 C0.88336837 2.4667645 1.1312406 3.63859372 0.22265625 6.140625 C-0.35162109 7.18476562 -0.35162109 7.18476562 -0.9375 8.25 C-1.50791016 9.30960938 -1.50791016 9.30960938 -2.08984375 10.390625 C-2.39019531 10.92171875 -2.69054687 11.4528125 -3 12 C-3.66 11.67 -4.32 11.34 -5 11 C-5 10.34 -5 9.68 -5 9 C-5.66 9 -6.32 9 -7 9 C-7.2686084 9.70616455 -7.5372168 10.4123291 -7.81396484 11.13989258 C-9.04892953 14.11799289 -10.46640345 16.91354673 -11.9765625 19.76171875 C-12.56163574 20.87313232 -13.14670898 21.9845459 -13.74951172 23.12963867 C-14.05628845 23.7111972 -14.36306519 24.29275574 -14.67913818 24.89193726 C-20.57000637 36.07477947 -26.09423388 47.34499663 -31 59 C-31.99 59 -32.98 59 -34 59 C-32.61140963 54.5532247 -30.88410741 50.43178101 -28.875 46.23046875 C-28.42009941 45.27897446 -28.42009941 45.27897446 -27.95600891 44.30825806 C-26.97600148 42.26538655 -25.9890472 40.22600908 -25 38.1875 C-24.66463226 37.49457855 -24.32926453 36.8016571 -23.98373413 36.08773804 C-19.99345982 27.86353855 -15.94844749 19.69739592 -11.3125 11.8125 C-10.73532227 10.82769653 -10.73532227 10.82769653 -10.14648438 9.82299805 C-7.42396453 5.34188083 -5.08148496 1.69382832 0 0 Z " fill="#B97346" transform="translate(245,43)"/>
<path d="M0 0 C3.5 0.25 3.5 0.25 5.5 2.25 C7.66999194 2.6730689 7.66999194 2.6730689 10.0625 2.8125 C14.40277778 3.15277778 14.40277778 3.15277778 15.5 4.25 C15.54092937 6.58297433 15.54241723 8.91705225 15.5 11.25 C11.83333333 11.25 8.16666667 11.25 4.5 11.25 C3.571875 11.518125 2.64375 11.78625 1.6875 12.0625 C-1.5 12.25 -1.5 12.25 -4.4375 10.125 C-6.5 7.25 -6.5 7.25 -6.4375 4.5625 C-4.91048276 0.79585747 -4.1121037 0.29372169 0 0 Z M-0.5 3.25 C-1.49 4.735 -1.49 4.735 -2.5 6.25 C-2.17 6.91 -1.84 7.57 -1.5 8.25 C-0.18 7.92 1.14 7.59 2.5 7.25 C2.17 5.93 1.84 4.61 1.5 3.25 C0.84 3.25 0.18 3.25 -0.5 3.25 Z " fill="#DC6921" transform="translate(245.5,290.75)"/>
<path d="M0 0 C2.91041046 2.56931213 4.57332003 5.50809074 6.46875 8.875 C6.95112122 9.72360596 6.95112122 9.72360596 7.4432373 10.58935547 C8.81266652 12.9988596 10.17067568 15.41474274 11.52978516 17.83007812 C12.5263522 19.59730461 13.52865162 21.36119045 14.53125 23.125 C15.12486328 24.17945313 15.71847656 25.23390625 16.33007812 26.3203125 C17.83407653 28.96939988 17.83407653 28.96939988 19.70507812 30.66796875 C21 32 21 32 21.1875 35.1875 C21.0946875 36.5796875 21.0946875 36.5796875 21 38 C21.66 38 22.32 38 23 38 C23 38.99 23 39.98 23 41 C23.66 41 24.32 41 25 41 C25 43.31 25 45.62 25 48 C24.08504761 48.17390259 24.08504761 48.17390259 23.15161133 48.35131836 C20.371861 48.87980106 17.59217993 49.40864714 14.8125 49.9375 C13.37293945 50.21110352 13.37293945 50.21110352 11.90429688 50.49023438 C10.97294922 50.66748047 10.04160156 50.84472656 9.08203125 51.02734375 C8.22843018 51.18968506 7.3748291 51.35202637 6.49536133 51.51928711 C4.7657505 51.85248383 3.04285441 52.22178084 1.3269043 52.61938477 C-1.47992636 53.07850228 -2.63465909 52.48928872 -5 51 C13.82004556 46.40774487 13.82004556 46.40774487 23 47 C21.732282 41.83110858 20.00017437 37.98196059 17.125 33.4375 C13.02723705 26.81690888 9.18687529 20.07368465 5.4375 13.25 C4.9007666 12.28505615 4.3640332 11.3201123 3.81103516 10.32592773 C3.31522949 9.41915283 2.81942383 8.51237793 2.30859375 7.578125 C1.86314209 6.76762695 1.41769043 5.95712891 0.95874023 5.12207031 C0 3 0 3 0 0 Z " fill="#DA6520" transform="translate(78,147)"/>
<path d="M0 0 C0.33 0.99 0.66 1.98 1 3 C0.525625 3.391875 0.05125 3.78375 -0.4375 4.1875 C-2.35179633 6.40808374 -2.61266988 8.13375709 -3 11 C-3.66 11 -4.32 11 -5 11 C-6.01534595 14.3603116 -6.13383137 17.43586286 -6.125 20.9375 C-6.12757813 21.95714844 -6.13015625 22.97679688 -6.1328125 24.02734375 C-6.00911936 26.79588725 -5.62526738 29.30539535 -5 32 C-8 31 -8 31 -10 28 C-10.69867188 28.34933594 -11.39734375 28.69867188 -12.1171875 29.05859375 C-15.41145833 30.70572917 -18.70572917 32.35286458 -22 34 C-20.56133618 29.96611757 -18.6097022 26.71100077 -16.19140625 23.18359375 C-15.8240184 22.64525406 -15.45663055 22.10691437 -15.07810974 21.55226135 C-13.91070872 19.84423029 -12.73662674 18.14091255 -11.5625 16.4375 C-10.77757395 15.2900013 -9.9930647 14.14221737 -9.20898438 12.99414062 C-3.08600711 4.04876921 -3.08600711 4.04876921 0 0 Z " fill="#EA5B08" transform="translate(259,32)"/>
<path d="M0 0 C0.99 0 1.98 0 3 0 C3 1.98 3 3.96 3 6 C3.99 6 4.98 6 6 6 C9.66666667 6 13.33333333 6 17 6 C17 6.33 17 6.66 17 7 C15.02 7 13.04 7 11 7 C12.61268692 9.71224618 14.24901874 12.37352812 16 15 C15.01 15.495 15.01 15.495 14 16 C14.66 16.33 15.32 16.66 16 17 C16 17.66 16 18.32 16 19 C18.31 19.33 20.62 19.66 23 20 C23 20.66 23 21.32 23 22 C18.38 22 13.76 22 9 22 C9 21.34 9 20.68 9 20 C9.66 20 10.32 20 11 20 C10.505 19.13375 10.505 19.13375 10 18.25 C9 16 9 16 9 12 C8.01 11.67 7.02 11.34 6 11 C6 10.34 6 9.68 6 9 C5.34 9 4.68 9 4 9 C4 9.66 4 10.32 4 11 C3.01 11.495 3.01 11.495 2 12 C1.21984379 13.82510997 0.52204594 15.68606676 -0.125 17.5625 C-0.47820312 18.57441406 -0.83140625 19.58632812 -1.1953125 20.62890625 C-1.46085938 21.41136719 -1.72640625 22.19382813 -2 23 C-2.33 23 -2.66 23 -3 23 C-2.67 20.69 -2.34 18.38 -2 16 C-2.99 15.67 -3.98 15.34 -5 15 C-3.68 14.67 -2.36 14.34 -1 14 C-0.67 12.02 -0.34 10.04 0 8 C-0.99 8.495 -0.99 8.495 -2 9 C-1.7834375 8.1646875 -1.7834375 8.1646875 -1.5625 7.3125 C-0.97230872 4.88615805 -0.476571 2.45093655 0 0 Z " fill="#DB611B" transform="translate(218,178)"/>
<path d="M0 0 C1.125 3.75 1.125 3.75 0 6 C-0.039992 7.99960012 -0.04346799 10.00047242 0 12 C0.66 12 1.32 12 2 12 C1.34 13.98 0.68 15.96 0 18 C-1.32 17.34 -2.64 16.68 -4 16 C-3.96519531 16.78503906 -3.93039063 17.57007813 -3.89453125 18.37890625 C-3.73161617 24.70156304 -3.66770831 29.5255208 -7 35 C-7.68320313 35.27714844 -8.36640625 35.55429688 -9.0703125 35.83984375 C-9.70710937 36.22269531 -10.34390625 36.60554688 -11 37 C-11.63016367 39.55006038 -11.63016367 39.55006038 -11.625 42.4375 C-11.80758427 47.7113764 -11.80758427 47.7113764 -14 51 C-14.66 51 -15.32 51 -16 51 C-16 48.69 -16 46.38 -16 44 C-16.66 44 -17.32 44 -18 44 C-17.67 42.68 -17.34 41.36 -17 40 C-16.01 40 -15.02 40 -14 40 C-13.67 38.35 -13.34 36.7 -13 35 C-12.01 35.33 -11.02 35.66 -10 36 C-9.67 32.7 -9.34 29.4 -9 26 C-8.34 26 -7.68 26 -7 26 C-6.87044922 24.94425781 -6.87044922 24.94425781 -6.73828125 23.8671875 C-5.53270078 15.39494308 -3.07938454 7.94528225 0 0 Z M-15 47 C-14 49 -14 49 -14 49 Z " fill="#E25F13" transform="translate(188,172)"/>
<path d="M0 0 C3.83736322 0.95934081 4.59660228 1.23609263 7 4 C7.66 3.01 8.32 2.02 9 1 C9.99 1.33 10.98 1.66 12 2 C11.01 2.495 11.01 2.495 10 3 C9.67 3.99 9.34 4.98 9 6 C6.525 5.505 6.525 5.505 4 5 C3.690625 6.134375 3.38125 7.26875 3.0625 8.4375 C2 12 2 12 1 13 C-1.4375 13.25 -1.4375 13.25 -4 13 C-4.66 12.01 -5.32 11.02 -6 10 C-7.32 10.33 -8.64 10.66 -10 11 C-10.33 12.98 -10.66 14.96 -11 17 C-10.34 17 -9.68 17 -9 17 C-9 19.31 -9 21.62 -9 24 C-11.56268974 21.43731026 -12.05976424 19.20609823 -13.125 15.75 C-13.47820313 14.63109375 -13.83140625 13.5121875 -14.1953125 12.359375 C-14.97670112 9.09726717 -15.15172369 6.33792108 -15 3 C-13.35 2.67 -11.7 2.34 -10 2 C-9.59007812 2.48210938 -9.18015625 2.96421875 -8.7578125 3.4609375 C-8.21898437 4.09257813 -7.68015625 4.72421875 -7.125 5.375 C-6.59132813 6.00148438 -6.05765625 6.62796875 -5.5078125 7.2734375 C-4.38567993 8.55836651 -3.20628025 9.79371975 -2 11 C-1.67 10.34 -1.34 9.68 -1 9 C-0.34 9 0.32 9 1 9 C0.67 6.03 0.34 3.06 0 0 Z " fill="#DC5F17" transform="translate(60,51)"/>
<path d="M0 0 C-0.3125 1.9375 -0.3125 1.9375 -1 4 C-1.99 4.33 -2.98 4.66 -4 5 C-4.33 5.66 -4.66 6.32 -5 7 C-6.95709957 8.08155503 -8.97282088 9.05631317 -11 10 C-12.33804688 10.62841797 -12.33804688 10.62841797 -13.703125 11.26953125 C-22.1442666 15.18540844 -22.1442666 15.18540844 -26 16 C-25.67 14.68 -25.34 13.36 -25 12 C-24.01 12 -23.02 12 -22 12 C-21.34 11.67 -20.68 11.34 -20 11 C-18 10 -18 10 -15 10 C-14.67 7.03 -14.34 4.06 -14 1 C-14.66 0.67 -15.32 0.34 -16 0 C-5.62642369 -2.66514806 -5.62642369 -2.66514806 0 0 Z " fill="#E65B09" transform="translate(130,247)"/>
<path d="M0 0 C4.12698821 2.06349411 4.83085058 2.79696272 7.09375 6.54296875 C7.92712891 7.90711914 7.92712891 7.90711914 8.77734375 9.29882812 C9.34582031 10.25208984 9.91429688 11.20535156 10.5 12.1875 C11.06847656 13.12142578 11.63695313 14.05535156 12.22265625 15.01757812 C13.83113637 17.66914454 15.41657503 20.33342508 17 23 C17.43957031 23.71494629 17.87914063 24.42989258 18.33203125 25.16650391 C19.2826445 26.7422842 20.15198879 28.36671311 21 30 C20.67 30.66 20.34 31.32 20 32 C19.67 31.01 19.34 30.02 19 29 C16.49552484 27.78130071 16.49552484 27.78130071 14 27 C13.67 24.69 13.34 22.38 13 20 C12.01 20 11.02 20 10 20 C10 18.68 10 17.36 10 16 C9.34 15.67 8.68 15.34 8 15 C7.67 14.34 7.34 13.68 7 13 C6.34 13 5.68 13 5 13 C4.67 13.99 4.34 14.98 4 16 C1.03 15.505 1.03 15.505 -2 15 C-2.33 13.68 -2.66 12.36 -3 11 C-0.525 11.99 -0.525 11.99 2 13 C1.34 8.71 0.68 4.42 0 0 Z " fill="#D86118" transform="translate(75,42)"/>
<path d="M0 0 C0 2.62113708 -0.31292445 4.50935112 -1 7 C-1.66 6.855625 -2.32 6.71125 -3 6.5625 C-6.65599551 5.87700084 -10.30622195 5.43824485 -14 5 C-14 5.99 -14 6.98 -14 8 C-15.32 8 -16.64 8 -18 8 C-17.67 8.99 -17.34 9.98 -17 11 C-17.33 11.66 -17.66 12.32 -18 13 C-18.66 13 -19.32 13 -20 13 C-20 13.66 -20 14.32 -20 15 C-18.35 15.33 -16.7 15.66 -15 16 C-15 16.99 -15 17.98 -15 19 C-15.66 19 -16.32 19 -17 19 C-17 18.34 -17 17.68 -17 17 C-19.31 17 -21.62 17 -24 17 C-24.33 14.69 -24.66 12.38 -25 10 C-5.55121951 -2.77560976 -5.55121951 -2.77560976 0 0 Z " fill="#E65C0D" transform="translate(64,233)"/>
<path d="M0 0 C3 3 3 3 4 5 C4.66 5 5.32 5 6 5 C6.2475 5.78375 6.495 6.5675 6.75 7.375 C7.71326892 10.10603621 7.71326892 10.10603621 9.890625 10.90625 C15.86122715 14.00211778 19.34967804 23.08774332 22 29 C22 29.99 22 30.98 22 32 C21.01 32 20.02 32 19 32 C18.34 30.35 17.68 28.7 17 27 C16.34 27 15.68 27 15 27 C14.34 27.66 13.68 28.32 13 29 C13 27.68 13 26.36 13 25 C14.32 25 15.64 25 17 25 C16.401875 24.505 15.80375 24.01 15.1875 23.5 C13.05315843 21.06075249 12.49709236 19.80426981 11.5625 16.8125 C10.90365565 14.74511001 10.90365565 14.74511001 10 13 C7.62116511 11.6740144 7.62116511 11.6740144 5 12 C3.02 12.99 3.02 12.99 1 14 C0.67 9.38 0.34 4.76 0 0 Z M4 7 C5 9 5 9 5 9 Z " fill="#D06A2E" transform="translate(111,92)"/>
<path d="M0 0 C1.10844919 3.32534757 0.84454356 5.62182575 0 9 C0.99 8.67 1.98 8.34 3 8 C2.67 9.32 2.34 10.64 2 12 C2.66 12 3.32 12 4 12 C4.66 11.01 5.32 10.02 6 9 C6.625 10.8125 6.625 10.8125 7 13 C6.01 14.485 6.01 14.485 5 16 C4.01 16 3.02 16 2 16 C2.66 16.33 3.32 16.66 4 17 C3.34 19.97 2.68 22.94 2 26 C1.01 26 0.02 26 -1 26 C-1.33 26.66 -1.66 27.32 -2 28 C-3.18771723 24.57056481 -2.80226223 22.62215325 -1.5625 19.25 C-1.27503906 18.45078125 -0.98757812 17.6515625 -0.69140625 16.828125 C-0.46324219 16.22484375 -0.23507813 15.6215625 0 15 C-0.99 15.33 -1.98 15.66 -3 16 C-2.88487847 14.27014758 -2.75744323 12.54111249 -2.625 10.8125 C-2.55539063 9.84957031 -2.48578125 8.88664063 -2.4140625 7.89453125 C-1.99784147 4.98491062 -1.20125904 2.67109226 0 0 Z " fill="#E35F10" transform="translate(192,145)"/>
<path d="M0 0 C1 2 1 2 0.41430664 3.79321289 C0.08293701 4.5124292 -0.24843262 5.23164551 -0.58984375 5.97265625 C-1.14297241 7.18743652 -1.14297241 7.18743652 -1.70727539 8.42675781 C-2.11324951 9.29655273 -2.51922363 10.16634766 -2.9375 11.0625 C-3.34411865 11.94905273 -3.7507373 12.83560547 -4.16967773 13.74902344 C-5.43687429 16.50390531 -6.71634861 19.25275067 -8 22 C-8.4012207 22.86028809 -8.80244141 23.72057617 -9.21582031 24.60693359 C-11.46043122 29.41265494 -13.72273293 34.20967254 -16 39 C-16.66 38.01 -17.32 37.02 -18 36 C-17.5625 33.875 -17.5625 33.875 -17 32 C-17.33 31.67 -17.66 31.34 -18 31 C-18.36442233 29.33985384 -18.69972883 27.67293936 -19 26 C-15.535 25.505 -15.535 25.505 -12 25 C-11.01 21.535 -11.01 21.535 -10 18 C-9.34 18 -8.68 18 -8 18 C-8 17.01 -8 16.02 -8 15 C-7.34 15 -6.68 15 -6 15 C-5.34 11.37 -4.68 7.74 -4 4 C-3.34 4 -2.68 4 -2 4 C-2 3.01 -2 2.02 -2 1 C-1.34 0.67 -0.68 0.34 0 0 Z " fill="#EA5A04" transform="translate(251,111)"/>
<path d="M0 0 C0.66 0.66 1.32 1.32 2 2 C2.99 2.33 3.98 2.66 5 3 C4.50628906 3.49628906 4.01257813 3.99257812 3.50390625 4.50390625 C-0.7769951 9.0432121 -2.39030541 11.65917631 -3 18 C-3.66 18.639375 -4.32 19.27875 -5 19.9375 C-8.00467189 23.03606788 -7.66211854 25.74269366 -8 30 C-8.33 30.99 -8.66 31.98 -9 33 C-9.99 33 -10.98 33 -12 33 C-12.33 34.32 -12.66 35.64 -13 37 C-13.66 37 -14.32 37 -15 37 C-12.81134102 28.56446739 -9.41096802 20.7901553 -5.8125 12.875 C-5.24747919 11.6200471 -4.68302218 10.36484021 -4.11914062 9.109375 C-2.75159409 6.07038271 -1.37844976 3.03405829 0 0 Z " fill="#D9601A" transform="translate(208,107)"/>
<path d="M0 0 C3.3 0 6.6 0 10 0 C10.92538169 3.70152678 11.08174162 4.63458162 10 8 C6.17421227 9.22621401 2.35022923 9.18369231 -1.625 9.1875 C-2.305625 9.19974609 -2.98625 9.21199219 -3.6875 9.22460938 C-5.45990756 9.22986355 -7.2317994 9.12215906 -9 9 C-9.66 8.34 -10.32 7.68 -11 7 C-10.34 6.01 -9.68 5.02 -9 4 C-7.35 4.33 -5.7 4.66 -4 5 C-4 5.66 -4 6.32 -4 7 C-2.68 7 -1.36 7 0 7 C0 4.69 0 2.38 0 0 Z M2 2 C2 2.99 2 3.98 2 5 C2.66 5.33 3.32 5.66 4 6 C3.34 4.68 2.68 3.36 2 2 Z " fill="#D76D31" transform="translate(299,294)"/>
<path d="M0 0 C1.32 0 2.64 0 4 0 C5.83691257 3.78187881 6.15837626 5.94568308 5 10 C3.68 10 2.36 10 1 10 C0.67 8.68 0.34 7.36 0 6 C-1.94999129 6.19471111 -1.94999129 6.19471111 -4 7 C-5.28436734 8.9837767 -5.28436734 8.9837767 -6 11 C-8.97 10.505 -8.97 10.505 -12 10 C-11.34 9.67 -10.68 9.34 -10 9 C-10 8.01 -10 7.02 -10 6 C-11.32 5.34 -12.64 4.68 -14 4 C-12.865625 4.020625 -11.73125 4.04125 -10.5625 4.0625 C-7.18424326 4.41577477 -7.18424326 4.41577477 -6 3 C-4.00041636 2.95919217 -1.99954746 2.95745644 0 3 C0 2.01 0 1.02 0 0 Z " fill="#EA5A0F" transform="translate(294,291)"/>
<path d="M0 0 C2 2 2 2 2.125 5.125 C2.08375 6.07375 2.0425 7.0225 2 8 C2.66 8 3.32 8 4 8 C4.33896268 10.83275953 4.67129694 13.66604661 5 16.5 C5.09539062 17.29148437 5.19078125 18.08296875 5.2890625 18.8984375 C5.87107882 23.97029404 6.09367085 28.89493859 6 34 C4.68 34 3.36 34 2 34 C1.97494385 33.43192627 1.9498877 32.86385254 1.92407227 32.27856445 C1.44375919 21.50365004 0.93708429 10.74656243 0 0 Z " fill="#C47039" transform="translate(165,298)"/>
<path d="M0 0 C0.33 0 0.66 0 1 0 C0.91154791 5.3955774 0.91154791 5.3955774 0 8 C-2.31808364 9.03485877 -4.65175298 10.0355414 -7 11 C-8.0615942 14.58863524 -8.0615942 14.58863524 -8 18 C-10.3125 18.625 -10.3125 18.625 -13 19 C-13.99 18.34 -14.98 17.68 -16 17 C-18.64632287 17.3121764 -18.64632287 17.3121764 -21 18 C-21.33 17.01 -21.66 16.02 -22 15 C-22.99 15 -23.98 15 -25 15 C-25 14.01 -25 13.02 -25 12 C-23.35 12 -21.7 12 -20 12 C-20 12.99 -20 13.98 -20 15 C-18.329375 14.7215625 -18.329375 14.7215625 -16.625 14.4375 C-13 14 -13 14 -11 15 C-10.01 12.36 -9.02 9.72 -8 7 C-6.02 7 -4.04 7 -2 7 C-2 6.01 -2 5.02 -2 4 C-1.34 4 -0.68 4 0 4 C0 2.68 0 1.36 0 0 Z " fill="#DA6118" transform="translate(195,287)"/>
<path d="M0 0 C-3.08764415 2.05842943 -3.82178745 2.19795157 -7.3125 2.3125 C-12.33287319 2.73906766 -14.48650218 4.48650218 -18 8 C-17.0022242 10.99332739 -16.2477975 11.94766315 -14 14 C-21.24705882 11.85882353 -21.24705882 11.85882353 -24 9 C-24.25 6.3125 -24.25 6.3125 -24 4 C-15.66943306 1.11424805 -8.83744847 -0.15444085 0 0 Z " fill="#D9631D" transform="translate(73,199)"/>
<path d="M0 0 C-0.66 1.98 -1.32 3.96 -2 6 C1.05270463 6.15811388 1.05270463 6.15811388 4 5 C3.855625 5.825 3.71125 6.65 3.5625 7.5 C3.2671207 9.33791564 2.98671636 11.18247524 2.8515625 13.0390625 C2.56720322 16.65448763 2.27664905 18.66466782 -0.0625 21.5 C-0.701875 21.995 -1.34125 22.49 -2 23 C-1.67 20.69 -1.34 18.38 -1 16 C-1.66 16.33 -2.32 16.66 -3 17 C-2.979375 16.13375 -2.95875 15.2675 -2.9375 14.375 C-2.99786267 11.11541603 -3.26172049 8.17460191 -4 5 C-4.66 4.67 -5.32 4.34 -6 4 C-2.25 0 -2.25 0 0 0 Z " fill="#E35E15" transform="translate(292,19)"/>
<path d="M0 0 C4.02992782 0.55312735 8.02022924 1.1558062 12 2 C12.79953138 5.28696233 13.09658936 6.71023192 12 10 C12.66 10 13.32 10 14 10 C13.67 10.99 13.34 11.98 13 13 C10.69 12.67 8.38 12.34 6 12 C5.855625 10.88625 5.71125 9.7725 5.5625 8.625 C5.21627965 5.17857953 5.21627965 5.17857953 4 3 C2.68 3.33 1.36 3.66 0 4 C0 2.68 0 1.36 0 0 Z " fill="#D97135" transform="translate(224,290)"/>
<path d="M0 0 C-0.33 1.65 -0.66 3.3 -1 5 C1.97 5.495 1.97 5.495 5 6 C5 6.66 5 7.32 5 8 C5.90492187 7.98259766 5.90492187 7.98259766 6.828125 7.96484375 C8.02695312 7.95130859 8.02695312 7.95130859 9.25 7.9375 C10.43335938 7.92009766 10.43335938 7.92009766 11.640625 7.90234375 C13.90691002 7.99614694 15.8288895 8.36758937 18 9 C18 9.66 18 10.32 18 11 C18.66 10.67 19.32 10.34 20 10 C22.3329866 9.95977609 24.66706666 9.95679753 27 10 C23.35876518 12.42748988 20.36161548 13.10725284 16 13 C14.66150329 12.00692179 13.32848691 11.00642948 12 10 C8.98483643 9.72637259 6.01955436 9.82579494 3 10 C3 9.34 3 8.68 3 8 C1.576875 8.0928125 1.576875 8.0928125 0.125 8.1875 C-0.90625 8.125625 -1.9375 8.06375 -3 8 C-5 5 -5 5 -4.75 2.875 C-3.71465357 0.28663392 -2.72969217 0 0 0 Z " fill="#D16626" transform="translate(51,263)"/>
<path d="M0 0 C1 3 1 3 0 6 C2.49064888 6.68707555 4.37886292 7 7 7 C8.04449911 10.13349732 7.93423645 10.98968256 7 14 C5.35 13.67 3.7 13.34 2 13 C1.67 11.35 1.34 9.7 1 8 C-0.48602395 12.25132068 -1.63875478 16.48172585 -2.625 20.875 C-2.88539063 22.02742188 -3.14578125 23.17984375 -3.4140625 24.3671875 C-3.60742188 25.23601562 -3.80078125 26.10484375 -4 27 C-4.33 27 -4.66 27 -5 27 C-5.05386629 24.87527424 -5.09273071 22.75016348 -5.125 20.625 C-5.14820313 19.44164062 -5.17140625 18.25828125 -5.1953125 17.0390625 C-5 14 -5 14 -3 12 C-2.83322718 8.41656024 -2.83322718 8.41656024 -3 5 C-2.34 5 -1.68 5 -1 5 C-0.67 3.35 -0.34 1.7 0 0 Z " fill="#DA5F18" transform="translate(206,232)"/>
<path d="M0 0 C4.16138263 -0.08159574 7.9472484 0.01751476 12 1 C12 1.66 12 2.32 12 3 C14.97 3 17.94 3 21 3 C20.34 3.66 19.68 4.32 19 5 C19.33 5.66 19.66 6.32 20 7 C19.67 7.66 19.34 8.32 19 9 C19.99 9.66 20.98 10.32 22 11 C20.58456585 11.19658808 19.16755969 11.38187546 17.75 11.5625 C16.96109375 11.66691406 16.1721875 11.77132813 15.359375 11.87890625 C12.99467126 12.00027349 11.2488963 11.69633257 9 11 C10.32 10.67 11.64 10.34 13 10 C13 8.68 13 7.36 13 6 C12.01 7.485 12.01 7.485 11 9 C11 6.69 11 4.38 11 2 C9.68 2 8.36 2 7 2 C7 2.66 7 3.32 7 4 C6.34 3.67 5.68 3.34 5 3 C5.33 2.34 5.66 1.68 6 1 C4.02 1 2.04 1 0 1 C0 0.67 0 0.34 0 0 Z " fill="#E06A2A" transform="translate(265,291)"/>
<path d="M0 0 C1.98 0.99 1.98 0.99 4 2 C4 2.66 4 3.32 4 4 C4.99 4 5.98 4 7 4 C7.19412181 5.47831221 7.38012131 6.95769316 7.5625 8.4375 C7.66691406 9.26121094 7.77132812 10.08492187 7.87890625 10.93359375 C7.91886719 11.61550781 7.95882812 12.29742187 8 13 C7.67 13.33 7.34 13.66 7 14 C6.63371323 15.99422795 6.29868656 17.99453311 6 20 C1.38599178 14.39081353 -0.57113606 7.23439006 0 0 Z " fill="#E35F12" transform="translate(55,85)"/>
<path d="M0 0 C0.66 0.33 1.32 0.66 2 1 C1.34 2.65 0.68 4.3 0 6 C0.99 6.9590625 0.99 6.9590625 2 7.9375 C4 10 4 10 4 11 C6.97 11.33 9.94 11.66 13 12 C13 12.66 13 13.32 13 14 C1.11024527 14.56221257 1.11024527 14.56221257 -3 11 C-4.41441874 8.17116253 -4.31900332 6.12623255 -4 3 C-2 1.125 -2 1.125 0 0 Z " fill="#D8621B" transform="translate(51,217)"/>
<path d="M0 0 C0.66 0 1.32 0 2 0 C2 0.99 2 1.98 2 3 C2.66 3 3.32 3 4 3 C4.67119549 4.4562545 5.33681807 5.91507867 6 7.375 C6.556875 8.59316406 6.556875 8.59316406 7.125 9.8359375 C8 12 8 12 8 14 C8.66 14 9.32 14 10 14 C10.28875 14.94875 10.5775 15.8975 10.875 16.875 C11.76825109 20.05211578 11.76825109 20.05211578 14 22 C14 23.32 14 24.64 14 26 C14.66 26 15.32 26 16 26 C16.33 28.64 16.66 31.28 17 34 C14.10223048 30.48320232 12.17250391 26.57098911 10.1875 22.5 C9.48324871 21.0702259 8.77881977 19.64053929 8.07421875 18.2109375 C7.72665527 17.50291992 7.3790918 16.79490234 7.02099609 16.06542969 C6.07585994 14.15346129 5.11514227 12.25069843 4.14453125 10.3515625 C3.60183594 9.28679687 3.05914062 8.22203125 2.5 7.125 C2.0153125 6.17882812 1.530625 5.23265625 1.03125 4.2578125 C0 2 0 2 0 0 Z " fill="#D7651D" transform="translate(79,140)"/>
<path d="M0 0 C1.32 0 2.64 0 4 0 C5.484375 1.53125 5.484375 1.53125 6.75 3.5 C7.39195312 4.47453125 7.39195312 4.47453125 8.046875 5.46875 C8.36140625 5.9740625 8.6759375 6.479375 9 7 C8.01 7.495 8.01 7.495 7 8 C7.66 8.33 8.32 8.66 9 9 C9 9.66 9 10.32 9 11 C11.31 11.33 13.62 11.66 16 12 C16 12.66 16 13.32 16 14 C11.38 14 6.76 14 2 14 C2 13.34 2 12.68 2 12 C2.66 12 3.32 12 4 12 C3.67 11.4225 3.34 10.845 3 10.25 C2 8 2 8 2 4 C1.06716704 1.79932579 1.06716704 1.79932579 0 0 Z " fill="#E16016" transform="translate(225,186)"/>
<path d="M0 0 C-2.64 0.99 -5.28 1.98 -8 3 C-7.33613281 3.10957031 -6.67226562 3.21914062 -5.98828125 3.33203125 C-0.99509334 4.22861828 2.71554737 5.18450256 7 8 C9.69254991 8.70670728 9.69254991 8.70670728 12 9 C12 9.33 12 9.66 12 10 C8.37 10 4.74 10 1 10 C0.67 9.34 0.34 8.68 0 8 C-3.02934491 7.34227572 -3.02934491 7.34227572 -6 7 C-6 6.34 -6 5.68 -6 5 C-8.64 5 -11.28 5 -14 5 C-13.67 3.68 -13.34 2.36 -13 1 C-11.39796533 0.63631108 -9.79325797 0.28438048 -8.1875 -0.0625 C-7.29417969 -0.25972656 -6.40085937 -0.45695313 -5.48046875 -0.66015625 C-3 -1 -3 -1 0 0 Z " fill="#E06118" transform="translate(102,212)"/>
<path d="M0 0 C1.58971965 2.38457948 2.86741593 4.6304124 4.125 7.1875 C4.47820312 7.90292969 4.83140625 8.61835938 5.1953125 9.35546875 C5.46085938 9.89816406 5.72640625 10.44085938 6 11 C5.67 8.36 5.34 5.72 5 3 C5.66 3 6.32 3 7 3 C7.69710731 4.28650706 8.38242876 5.57940665 9.0625 6.875 C9.44535156 7.59429687 9.82820312 8.31359375 10.22265625 9.0546875 C10.60744141 10.01761719 10.60744141 10.01761719 11 11 C10.67 11.66 10.34 12.32 10 13 C9.67 13 9.34 13 9 13 C8.67 14.32 8.34 15.64 8 17 C6.68 16.67 5.36 16.34 4 16 C4 14.35 4 12.7 4 11 C3.01 11 2.02 11 1 11 C0.67 7.37 0.34 3.74 0 0 Z " fill="#D9611D" transform="translate(137,156)"/>
<path d="M0 0 C4.13081725 4.58443504 6.57634633 9.81363379 9.25 15.3125 C9.70890625 16.24384766 10.1678125 17.17519531 10.640625 18.13476562 C11.76593013 20.42054168 12.88551377 22.70893473 14 25 C13.01 25.33 12.02 25.66 11 26 C11 25.01 11 24.02 11 23 C9.35 23 7.7 23 6 23 C5.896875 22.030625 5.79375 21.06125 5.6875 20.0625 C5.15114839 16.1897259 3.95949222 12.67861029 2.62109375 9.015625 C2 7 2 7 2 4 C1.34 4 0.68 4 0 4 C0 2.68 0 1.36 0 0 Z " fill="#D6621E" transform="translate(98,78)"/>
<path d="M0 0 C0.33 0.66 0.66 1.32 1 2 C0.04370117 4.32250977 0.04370117 4.32250977 -1.45703125 7.19140625 C-1.99263672 8.21814453 -2.52824219 9.24488281 -3.08007812 10.30273438 C-3.65177734 11.37845703 -4.22347656 12.45417969 -4.8125 13.5625 C-5.37259766 14.64208984 -5.93269531 15.72167969 -6.50976562 16.83398438 C-10.73645389 24.86822695 -10.73645389 24.86822695 -13 26 C-13 24.68 -13 23.36 -13 22 C-12.34 22 -11.68 22 -11 22 C-11 20.68 -11 19.36 -11 18 C-10.34 18 -9.68 18 -9 18 C-8.72736328 16.64455078 -8.72736328 16.64455078 -8.44921875 15.26171875 C-8.19785156 14.08222656 -7.94648438 12.90273437 -7.6875 11.6875 C-7.44386719 10.51574219 -7.20023437 9.34398438 -6.94921875 8.13671875 C-5.58899997 3.6418394 -3.83321531 2.55547687 0 0 Z " fill="#DC631E" transform="translate(270,75)"/>
<path d="M0 0 C0.68707555 2.49064888 1 4.37886292 1 7 C1.66 7.33 2.32 7.66 3 8 C2.24275352 9.98440482 1.46877038 11.96243005 0.6875 13.9375 C0.25824219 15.03964844 -0.17101562 16.14179688 -0.61328125 17.27734375 C-2 20 -2 20 -5 21 C-5.27908468 15.57878002 -4.42721053 11.62142765 -2.5 6.5625 C-2.26152344 5.92634766 -2.02304688 5.29019531 -1.77734375 4.63476562 C-1.19509076 3.08597268 -0.59898931 1.54239747 0 0 Z " fill="#CF6526" transform="translate(189,153)"/>
<path d="M0 0 C1.29643023 4.69955958 0.93477538 7.52583194 -1 12 C-1.99 12 -2.98 12 -4 12 C-4 12.99 -4 13.98 -4 15 C-4.99 15.33 -5.98 15.66 -7 16 C-8.20882096 18.00016466 -8.20882096 18.00016466 -9 20 C-9.66 20 -10.32 20 -11 20 C-9.36047417 15.3606824 -6.93128948 11.36144142 -4.375 7.1875 C-3.95476562 6.49462891 -3.53453125 5.80175781 -3.1015625 5.08789062 C-2.0710533 3.38989252 -1.03598319 1.69466386 0 0 Z " fill="#D7611B" transform="translate(236,66)"/>
<path d="M0 0 C0.99 0 1.98 0 3 0 C1.38659413 4.73937973 -1.21130457 8.58015001 -4 12.6875 C-4.45117188 13.36361328 -4.90234375 14.03972656 -5.3671875 14.73632812 C-7.13617337 17.36625534 -8.7522666 19.7522666 -11 22 C-10 18 -10 18 -9.4375 16.0625 C-8.92933117 13.66684693 -8.93216674 11.44199733 -9 9 C-7.35 9 -5.7 9 -4 9 C-3.896875 8.236875 -3.79375 7.47375 -3.6875 6.6875 C-2.95012228 3.80502345 -2.19029986 2.90460858 0 1 C0 0.67 0 0.34 0 0 Z " fill="#CE6523" transform="translate(287,42)"/>
<path d="M0 0 C0.66 0 1.32 0 2 0 C2 0.66 2 1.32 2 2 C2.99 2 3.98 2 5 2 C5 2.66 5 3.32 5 4 C3.02 4.99 3.02 4.99 1 6 C1.99 9.3 2.98 12.6 4 16 C-0.8 13.53846154 -0.8 13.53846154 -1.8125 10.8125 C-1.9053125 9.9153125 -1.9053125 9.9153125 -2 9 C-2.99 9.495 -2.99 9.495 -4 10 C-4 10.66 -4 11.32 -4 12 C-4.66 12 -5.32 12 -6 12 C-6 10.35 -6 8.7 -6 7 C-3 6 -3 6 0 7 C0 4.69 0 2.38 0 0 Z " fill="#DD6117" transform="translate(166,196)"/>
<path d="M0 0 C4.18375468 1.39458489 4.66263889 3.52903739 6.6875 7.375 C7.31011719 8.53773437 7.93273437 9.70046875 8.57421875 10.8984375 C10 14 10 14 10 17 C9.01 17 8.02 17 7 17 C6.34 15.35 5.68 13.7 5 12 C4.34 12 3.68 12 3 12 C2.34 12.66 1.68 13.32 1 14 C1 12.68 1 11.36 1 10 C2.32 10 3.64 10 5 10 C4.360625 9.46375 3.72125 8.9275 3.0625 8.375 C0.61470596 5.55632807 0.33285388 3.66139268 0 0 Z " fill="#D16523" transform="translate(123,107)"/>
<path d="M0 0 C0.33 0.99 0.66 1.98 1 3 C1.763125 2.505 2.52625 2.01 3.3125 1.5 C6 0 6 0 9 0 C8.38461538 5.53846154 8.38461538 5.53846154 6.4375 7.875 C5.7259375 8.431875 5.7259375 8.431875 5 9 C5.33 7.68 5.66 6.36 6 5 C3.69 5.33 1.38 5.66 -1 6 C-1.66 5.01 -2.32 4.02 -3 3 C-3.99 3 -4.98 3 -6 3 C-3.375 0 -3.375 0 0 0 Z " fill="#D56320" transform="translate(279,13)"/>
<path d="M0 0 C3.54112623 3.31807834 5.73207165 7.22774299 8.1875 11.375 C8.65091797 12.13039062 9.11433594 12.88578125 9.59179688 13.6640625 C13.68179916 20.55502364 13.68179916 20.55502364 13 25 C9.3443086 20.79092413 6.82048138 16.28152147 4.25 11.375 C3.83878906 10.611875 3.42757812 9.84875 3.00390625 9.0625 C2.61589844 8.32773438 2.22789063 7.59296875 1.828125 6.8359375 C1.3007373 5.83892822 1.3007373 5.83892822 0.76269531 4.82177734 C0 3 0 3 0 0 Z " fill="#BE7340" transform="translate(78,147)"/>
<path d="M0 0 C2.53115191 3.16393989 4.40901101 6.45648516 6.25 10.0625 C7.06210938 11.62677734 7.06210938 11.62677734 7.890625 13.22265625 C9 16 9 16 8 19 C4.87084199 16.3137382 3.2357324 13.04608071 1.3125 9.4375 C0.37857422 7.70306641 0.37857422 7.70306641 -0.57421875 5.93359375 C-2 3 -2 3 -2 1 C-1.34 0.67 -0.68 0.34 0 0 Z " fill="#C86D36" transform="translate(133,123)"/>
<path d="M0 0 C0.33 0.66 0.66 1.32 1 2 C0.33496094 3.96777344 0.33496094 3.96777344 -0.765625 6.359375 C-1.16136719 7.22820312 -1.55710938 8.09703125 -1.96484375 8.9921875 C-2.38894531 9.90226562 -2.81304687 10.81234375 -3.25 11.75 C-3.65863281 12.64460938 -4.06726563 13.53921875 -4.48828125 14.4609375 C-6.57801669 19.01669516 -8.72308561 23.53488217 -11 28 C-12.31223496 24.06329512 -11.24296256 21.87511856 -10 18 C-9.34 18 -8.68 18 -8 18 C-8 17.01 -8 16.02 -8 15 C-7.34 15 -6.68 15 -6 15 C-5.34 11.37 -4.68 7.74 -4 4 C-3.34 4 -2.68 4 -2 4 C-2 3.01 -2 2.02 -2 1 C-1.34 0.67 -0.68 0.34 0 0 Z " fill="#CD6929" transform="translate(251,111)"/>
<path d="M0 0 C0.88336837 2.4667645 1.1312406 3.63859372 0.22265625 6.140625 C-0.16019531 6.83671875 -0.54304687 7.5328125 -0.9375 8.25 C-1.31777344 8.95640625 -1.69804687 9.6628125 -2.08984375 10.390625 C-2.39019531 10.92171875 -2.69054687 11.4528125 -3 12 C-3.66 11.67 -4.32 11.34 -5 11 C-5 10.01 -5 9.02 -5 8 C-5.66 8 -6.32 8 -7 8 C-6.4376049 4.73810844 -5.5859495 3.08865152 -3 1 C-2.01 0.67 -1.02 0.34 0 0 Z " fill="#CF672D" transform="translate(245,43)"/>
<path d="M0 0 C0.66 0.99 1.32 1.98 2 3 C5.58357241 3.25015873 5.58357241 3.25015873 9 3 C8.979375 3.763125 8.95875 4.52625 8.9375 5.3125 C8.87057159 8.10185786 8.87057159 8.10185786 10 11 C7 10 7 10 5 7 C3.06616713 5.69934079 3.06616713 5.69934079 1 5 C0.01 5.495 0.01 5.495 -1 6 C-2.67654729 5.72057545 -4.34608154 5.39171753 -6 5 C-5.67 4.01 -5.34 3.02 -5 2 C-2.4375 0.8125 -2.4375 0.8125 0 0 Z " fill="#E35B0B" transform="translate(276,15)"/>
<path d="M0 0 C3.3 0.33 6.6 0.66 10 1 C10 1.99 10 2.98 10 4 C9.34 4 8.68 4 8 4 C7.67 5.32 7.34 6.64 7 8 C5.68 8 4.36 8 3 8 C3 7.34 3 6.68 3 6 C1.68 5.34 0.36 4.68 -1 4 C-0.67 2.68 -0.34 1.36 0 0 Z " fill="#EA5C0F" transform="translate(249,294)"/>
<path d="M0 0 C2.475 0.495 2.475 0.495 5 1 C5.33 2.98 5.66 4.96 6 7 C6.99 6.95875 7.98 6.9175 9 6.875 C13.23835866 6.8576652 16.93193985 7.85808838 21 9 C21 9.33 21 9.66 21 10 C15.39 9.67 9.78 9.34 4 9 C3.67 7.68 3.34 6.36 3 5 C2.01 5.495 2.01 5.495 1 6 C1.33 5.01 1.66 4.02 2 3 C1.34 2.67 0.68 2.34 0 2 C0 1.34 0 0.68 0 0 Z " fill="#E36017" transform="translate(235,202)"/>
<path d="M0 0 C0.33 0 0.66 0 1 0 C1.17015625 0.75023438 1.3403125 1.50046875 1.515625 2.2734375 C2.97104264 8.42025456 4.68597456 14.0999447 7.328125 19.84375 C8.10094564 22.32396509 7.85663692 23.5838446 7 26 C4.92428608 22.19452448 3.99491536 18.33450114 2.9765625 14.14453125 C2.65429688 13.43683594 2.33203125 12.72914063 2 12 C0.68 11.67 -0.64 11.34 -2 11 C-1.34 7.37 -0.68 3.74 0 0 Z " fill="#D9601F" transform="translate(125,122)"/>
<path d="M0 0 C4 2 4 2 5.25 4.625 C5.4975 5.40875 5.745 6.1925 6 7 C5.01 6.67 4.02 6.34 3 6 C3.66 8.97 4.32 11.94 5 15 C1 16 1 16 -2 15 C-2.6875 12.9375 -2.6875 12.9375 -3 11 C-0.525 11.99 -0.525 11.99 2 13 C1.34 8.71 0.68 4.42 0 0 Z " fill="#CD6B2E" transform="translate(75,42)"/>
<path d="M0 0 C1.98 0 3.96 0 6 0 C6.66 2.31 7.32 4.62 8 7 C7.01 7.33 6.02 7.66 5 8 C5 7.01 5 6.02 5 5 C4.01 5 3.02 5 2 5 C2.33 5.99 2.66 6.98 3 8 C2.01 8 1.02 8 0 8 C0 5.36 0 2.72 0 0 Z " fill="#EA5F10" transform="translate(207,293)"/>
<path d="M0 0 C2.7102665 2.7102665 3.66322486 5.92019313 5 9.4375 C6.42917207 13.17669523 7.76388022 16.64582033 10 20 C8.02 19.34 6.04 18.68 4 18 C4 16.35 4 14.7 4 13 C3.34 13 2.68 13 2 13 C1.66127487 11.58461283 1.32925376 10.16762037 1 8.75 C0.814375 7.96109375 0.62875 7.1721875 0.4375 6.359375 C0 4 0 4 0 0 Z " fill="#DA611A" transform="translate(148,169)"/>
<path d="M0 0 C5.75 0.75 5.75 0.75 8 3 C8.5625 5.25 8.5625 5.25 9 8 C9.226875 9.03125 9.45375 10.0625 9.6875 11.125 C10 14 10 14 8 17 C5.375 17.1875 5.375 17.1875 3 17 C4.32 16.34 5.64 15.68 7 15 C7 13.02 7 11.04 7 9 C6.01 8.67 5.02 8.34 4 8 C4.66 6.35 5.32 4.7 6 3 C4.02 2.34 2.04 1.68 0 1 C0 0.67 0 0.34 0 0 Z " fill="#D9611F" transform="translate(254,236)"/>
<path d="M0 0 C1.98 0 3.96 0 6 0 C6.33 0.66 6.66 1.32 7 2 C6.01 2.495 6.01 2.495 5 3 C5 4.32 5 5.64 5 7 C2.69 7 0.38 7 -2 7 C-1.34 4.69 -0.68 2.38 0 0 Z " fill="#E6631D" transform="translate(303,294)"/>
<path d="M0 0 C1.35439668 2.70879335 1.06501451 5.00933268 1 8 C-0.98 8 -2.96 8 -5 8 C-5.5534764 5.92446352 -6 4.15634036 -6 2 C-3 0 -3 0 0 0 Z " fill="#F46C1C" transform="translate(228,293)"/>
<path d="M0 0 C1.2065625 0.0309375 1.2065625 0.0309375 2.4375 0.0625 C2.4375 1.3825 2.4375 2.7025 2.4375 4.0625 C4.4175 3.7325 6.3975 3.4025 8.4375 3.0625 C8.4375 3.7225 8.4375 4.3825 8.4375 5.0625 C7.4475 5.0625 6.4575 5.0625 5.4375 5.0625 C4.7775 5.7225 4.1175 6.3825 3.4375 7.0625 C0.5 6.3125 0.5 6.3125 -2.5625 5.0625 C-3.5 3 -3.5 3 -3.5625 1.0625 C-2.5625 0.0625 -2.5625 0.0625 0 0 Z " fill="#DE6016" transform="translate(231.5625,247.9375)"/>
<path d="M0 0 C0.640625 1.8203125 0.640625 1.8203125 1 4 C-0.17903031 5.50653872 -1.37171844 7.00711313 -2.66796875 8.4140625 C-4.23697494 10.14912369 -4.23697494 10.14912369 -5.5625 13.25 C-7.09667218 16.18493809 -7.93036993 16.94150687 -11 18 C-9.48103632 13.56829827 -7.07360191 9.96975924 -4.375 6.1875 C-3.95476562 5.59001953 -3.53453125 4.99253906 -3.1015625 4.37695312 C-2.07220272 2.91479435 -1.0367177 1.45695101 0 0 Z " fill="#D8611A" transform="translate(250,45)"/>
<path d="M0 0 C0.33 0 0.66 0 1 0 C0.91154791 5.3955774 0.91154791 5.3955774 0 8 C-2.31808364 9.03485877 -4.65175298 10.0355414 -7 11 C-8.0615942 14.58863524 -8.0615942 14.58863524 -8 18 C-8.33 18 -8.66 18 -9 18 C-9.02688151 16.35425434 -9.04634123 14.70838587 -9.0625 13.0625 C-9.07410156 12.14597656 -9.08570313 11.22945313 -9.09765625 10.28515625 C-9 8 -9 8 -8 7 C-6.00041636 6.95919217 -3.99954746 6.95745644 -2 7 C-2 6.01 -2 5.02 -2 4 C-1.34 4 -0.68 4 0 4 C0 2.68 0 1.36 0 0 Z " fill="#D56E2D" transform="translate(195,287)"/>
<path d="M0 0 C1.37562854 1.28965176 2.70766393 2.62689293 4 4 C4 4.66 4 5.32 4 6 C4.66 6.33 5.32 6.66 6 7 C5.67 7.99 5.34 8.98 5 10 C5.67504242 12.06879452 5.67504242 12.06879452 6.8125 14.125 C7.16957031 14.82882812 7.52664062 15.53265625 7.89453125 16.2578125 C8.89208944 18.16088468 8.89208944 18.16088468 11 19 C11 19.66 11 20.32 11 21 C7.74602195 19.65493183 6.408262 18.57120141 4.9375 15.375 C4.44830078 14.31345703 4.44830078 14.31345703 3.94921875 13.23046875 C0 3.95061728 0 3.95061728 0 0 Z " fill="#CE682B" transform="translate(147,282)"/>
<path d="M0 0 C1.41655793 -0.0272415 2.83327045 -0.04650467 4.25 -0.0625 C5.43335938 -0.07990234 5.43335938 -0.07990234 6.640625 -0.09765625 C8.90691002 -0.00385306 10.8288895 0.36758937 13 1 C13 1.66 13 2.32 13 3 C13.66 2.67 14.32 2.34 15 2 C17.3329866 1.95977609 19.66706666 1.95679753 22 2 C18.35339742 4.43106839 15.36527742 5.09799602 11 5 C8.9375 3.625 8.9375 3.625 7 2 C3.34725531 1.27518916 3.34725531 1.27518916 0 1 C0 0.67 0 0.34 0 0 Z " fill="#D7631C" transform="translate(56,271)"/>
<path d="M0 0 C1.875 0.1875 1.875 0.1875 4 1 C5.3125 3.375 5.3125 3.375 6 6 C5.67 6.99 5.34 7.98 5 9 C4.01 9.33 3.02 9.66 2 10 C-1.07692308 4.58461538 -1.07692308 4.58461538 -0.6875 1.625 C-0.460625 1.08875 -0.23375 0.5525 0 0 Z " fill="#ED630D" transform="translate(194,197)"/>
<path d="M0 0 C3.83736322 0.95934081 4.59660228 1.23609263 7 4 C7.66 3.01 8.32 2.02 9 1 C9.99 1.33 10.98 1.66 12 2 C11.01 2.495 11.01 2.495 10 3 C9.67 3.99 9.34 4.98 9 6 C6.03824877 5.38722388 4.61941217 4.74627478 2 3 C2 5.31 2 7.62 2 10 C1.34 10 0.68 10 0 10 C0 10.66 0 11.32 0 12 C-0.66 11.67 -1.32 11.34 -2 11 C-1.67 10.34 -1.34 9.68 -1 9 C-0.34 9 0.32 9 1 9 C0.67 6.03 0.34 3.06 0 0 Z " fill="#D16828" transform="translate(60,51)"/>
<path d="M0 0 C1.485 0.99 1.485 0.99 3 2 C3.1875 4.625 3.1875 4.625 3 7 C3.66 7 4.32 7 5 7 C4.67 7.99 4.34 8.98 4 10 C2.35 9.67 0.7 9.34 -1 9 C-1.125 2.25 -1.125 2.25 0 0 Z " fill="#DF651D" transform="translate(233,293)"/>
<path d="M0 0 C0.13277344 0.56589844 0.26554688 1.13179687 0.40234375 1.71484375 C0.57894531 2.44832031 0.75554687 3.18179688 0.9375 3.9375 C1.19853516 5.03384766 1.19853516 5.03384766 1.46484375 6.15234375 C1.83887569 7.99969898 1.83887569 7.99969898 3 9 C3.04063832 10.66617115 3.042721 12.33388095 3 14 C0.27324841 11.59310197 -1.11966596 9.07528977 -2.6875 5.8125 C-3.12449219 4.91144531 -3.56148437 4.01039063 -4.01171875 3.08203125 C-4.33785156 2.39496094 -4.66398438 1.70789063 -5 1 C-2 0 -2 0 0 0 Z " fill="#D96118" transform="translate(136,248)"/>
<path d="M0 0 C0.99 0.495 0.99 0.495 2 1 C3.29930238 5.28769786 3.07516774 9.56510345 3 14 C2.01 14.33 1.02 14.66 0 15 C0 10.05 0 5.1 0 0 Z " fill="#D16526" transform="translate(168,318)"/>
<path d="M0 0 C0.99 0.33 1.98 0.66 3 1 C4 3.125 4 3.125 5 6 C5.53625 7.11375 6.0725 8.2275 6.625 9.375 C8.07408978 13.1953276 8.24775172 15.95338853 8 20 C6.12319089 17.18478634 5.12076819 14.85279454 4 11.6875 C3.65453125 10.71554687 3.3090625 9.74359375 2.953125 8.7421875 C1.94308151 5.83624272 0.94912319 2.92646318 0 0 Z " fill="#D7641E" transform="translate(139,262)"/>
<path d="M0 0 C2.97 0 5.94 0 9 0 C9 1.98 9 3.96 9 6 C8.34 6 7.68 6 7 6 C6.67 4.68 6.34 3.36 6 2 C5.38511719 2.2165625 4.77023438 2.433125 4.13671875 2.65625 C3.32847656 2.9346875 2.52023438 3.213125 1.6875 3.5 C0.48673828 3.91765625 0.48673828 3.91765625 -0.73828125 4.34375 C-3 5 -3 5 -6 5 C-6 4.34 -6 3.68 -6 3 C-4.02 3 -2.04 3 0 3 C0 2.01 0 1.02 0 0 Z " fill="#D7621F" transform="translate(122,240)"/>
<path d="M0 0 C0.578125 1.9140625 0.578125 1.9140625 1 4 C-0.25 5.375 -0.25 5.375 -2 7 C-3.04622875 8.97620986 -4.05439935 10.9737129 -5 13 C-5.99 12.67 -6.98 12.34 -8 12 C-6.59023295 8.96147295 -4.91129772 6.4060405 -2.875 3.75 C-2.06675781 2.69039062 -2.06675781 2.69039062 -1.2421875 1.609375 C-0.83226562 1.07828125 -0.42234375 0.5471875 0 0 Z " fill="#D96016" transform="translate(268,20)"/>
<path d="M0 0 C0.99 0.495 0.99 0.495 2 1 C4.33077343 1.30791869 6.66241896 1.50895274 9.00390625 1.71875 C11 2 11 2 12 3 C12.04092937 5.33297433 12.04241723 7.66705225 12 10 C10.68 10 9.36 10 8 10 C8 8.68 8 7.36 8 6 C8.66 6 9.32 6 10 6 C10 5.01 10 4.02 10 3 C7.03 3 4.06 3 1 3 C0.67 2.01 0.34 1.02 0 0 Z " fill="#D16E2F" transform="translate(249,292)"/>
<path d="M0 0 C0.33 0 0.66 0 1 0 C1.33 2.31 1.66 4.62 2 7 C1.01 7.33 0.02 7.66 -1 8 C-1.33 8.66 -1.66 9.32 -2 10 C-3.32 9.67 -4.64 9.34 -6 9 C-5.2884375 8.38125 -5.2884375 8.38125 -4.5625 7.75 C-2.81264784 5.79016559 -2.56788417 4.51491559 -2 2 C-1.34 1.34 -0.68 0.68 0 0 Z " fill="#DE5F13" transform="translate(161,291)"/>
<path d="M0 0 C0.598125 0.165 1.19625 0.33 1.8125 0.5 C4.11344336 1.1114124 4.11344336 1.1114124 7 1 C8.04449911 4.13349732 7.93423645 4.98968256 7 8 C5.35 7.67 3.7 7.34 2 7 C1.34 4.69 0.68 2.38 0 0 Z " fill="#D06930" transform="translate(206,238)"/>
<path d="M0 0 C0.66 0 1.32 0 2 0 C2 0.99 2 1.98 2 3 C3.65 3 5.3 3 7 3 C6.67 5.97 6.34 8.94 6 12 C3.25207517 8.59780735 0 4.51535412 0 0 Z " fill="#DD6014" transform="translate(63,109)"/>
<path d="M0 0 C1.0209375 0.14888672 1.0209375 0.14888672 2.0625 0.30078125 C4 0.6875 4 0.6875 7 1.6875 C7 2.3475 7 3.0075 7 3.6875 C2.38 3.6875 -2.24 3.6875 -7 3.6875 C-7 3.0275 -7 2.3675 -7 1.6875 C-3.80545772 -0.44219485 -3.50853075 -0.5515304 0 0 Z " fill="#D77641" transform="translate(234,196.3125)"/>
<path d="M0 0 C0.99 0.33 1.98 0.66 3 1 C0.76595074 3.23404926 -0.9496423 3.92100286 -3.875 5.0625 C-4.73867187 5.40410156 -5.60234375 5.74570312 -6.4921875 6.09765625 C-8.65359745 6.87535983 -10.76183502 7.49511162 -13 8 C-12.67 6.68 -12.34 5.36 -12 4 C-11.01 4 -10.02 4 -9 4 C-8.38125 3.67 -7.7625 3.34 -7.125 3 C-4.60272655 1.81304779 -2.75481627 1.84695465 0 2 C0 1.34 0 0.68 0 0 Z " fill="#D76520" transform="translate(117,255)"/>
<path d="M0 0 C1.32 0.33 2.64 0.66 4 1 C3.67 2.98 3.34 4.96 3 7 C1.68 7 0.36 7 -1 7 C-1.625 5.1875 -1.625 5.1875 -2 3 C-1.34 2.01 -0.68 1.02 0 0 Z " fill="#EE5D0E" transform="translate(296,294)"/>
<path d="M0 0 C1.32 0 2.64 0 4 0 C4 3 4 3 2.8125 4.6875 C0.38198653 6.44752699 -1.05749309 6.36781336 -4 6 C-4.99 5.34 -5.98 4.68 -7 4 C-6 3 -6 3 -2.9375 2.9375 C-1.4834375 2.9684375 -1.4834375 2.9684375 0 3 C0 2.01 0 1.02 0 0 Z " fill="#DA6929" transform="translate(294,291)"/>
<path d="M0 0 C-0.020625 0.804375 -0.04125 1.60875 -0.0625 2.4375 C-0.29633621 4.93354885 -0.29633621 4.93354885 1 6 C1.14115161 8.67058851 1.04247107 11.32432238 1 14 C0.01 13.34 -0.98 12.68 -2 12 C-1.34 12 -0.68 12 0 12 C-1.65 8.37 -3.3 4.74 -5 1 C-2 0 -2 0 0 0 Z " fill="#DF601A" transform="translate(116,208)"/>
<path d="M0 0 C0.99 0.33 1.98 0.66 3 1 C3.103125 1.763125 3.20625 2.52625 3.3125 3.3125 C4.04364039 6.17059424 4.76951913 7.15742885 7 9 C1.25 7.125 1.25 7.125 -1 6 C-1.042721 4.33388095 -1.04063832 2.66617115 -1 1 C-0.67 0.67 -0.34 0.34 0 0 Z " fill="#E35F11" transform="translate(52,204)"/>
<path d="M0 0 C2 3 2 3 1.86328125 5.0078125 C1.68152344 5.70648438 1.49976563 6.40515625 1.3125 7.125 C1.14363281 7.82882813 0.97476563 8.53265625 0.80078125 9.2578125 C0.53652344 9.83273438 0.27226562 10.40765625 0 11 C-0.99 11.33 -1.98 11.66 -3 12 C-3 9.69 -3 7.38 -3 5 C-2.01 4.67 -1.02 4.34 0 4 C0 2.68 0 1.36 0 0 Z " fill="#DD5E1A" transform="translate(187,162)"/>
<path d="M0 0 C1.32 0 2.64 0 4 0 C4.33 0.66 4.66 1.32 5 2 C7.02463255 2.65213292 7.02463255 2.65213292 9 3 C8.34 4.32 7.68 5.64 7 7 C6.4225 6.525625 5.845 6.05125 5.25 5.5625 C3.07417916 4.0515133 1.57397552 3.45963849 -1 3 C-0.67 2.01 -0.34 1.02 0 0 Z " fill="#D9641B" transform="translate(48,254)"/>
<path d="M0 0 C0.99 0 1.98 0 3 0 C4.07525194 2.65228812 5.09456151 5.28368454 6 8 C5.01 9.485 5.01 9.485 4 11 C3.34 11 2.68 11 2 11 C2 8.69 2 6.38 2 4 C1.34 4 0.68 4 0 4 C0 2.68 0 1.36 0 0 Z M3 7 C4 9 4 9 4 9 Z " fill="#E1631A" transform="translate(170,212)"/>
<path d="M0 0 C7.26 0.66 14.52 1.32 22 2 C22 2.33 22 2.66 22 3 C15.07 3 8.14 3 1 3 C0.67 2.01 0.34 1.02 0 0 Z " fill="#D76626" transform="translate(234,211)"/>
<path d="M0 0 C0.33 0 0.66 0 1 0 C1.66 4.29 2.32 8.58 3 13 C2.34 12.67 1.68 12.34 1 12 C0.34 13.65 -0.32 15.3 -1 17 C-2.3357457 13.22628488 -1.72408671 10.14168653 -1.0625 6.25 C-0.86785156 5.07953125 -0.67320312 3.9090625 -0.47265625 2.703125 C-0.31667969 1.81109375 -0.16070312 0.9190625 0 0 Z " fill="#C56C38" transform="translate(175,195)"/>
<path d="M0 0 C0.99 0.33 1.98 0.66 3 1 C3.556875 0.855625 4.11375 0.71125 4.6875 0.5625 C8.14040089 -0.27739481 11.45112343 -0.05914794 15 0 C15 0.33 15 0.66 15 1 C11.7 1.33 8.4 1.66 5 2 C5.33 2.99 5.66 3.98 6 5 C5.34 5 4.68 5 4 5 C4 4.34 4 3.68 4 3 C3.34 3 2.68 3 2 3 C2 3.66 2 4.32 2 5 C1.34 5 0.68 5 0 5 C0 3.35 0 1.7 0 0 Z " fill="#D46828" transform="translate(220,184)"/>
<path d="M0 0 C4.88764045 5.86516854 4.88764045 5.86516854 6 9 C5.71050922 10.34353414 5.38155437 11.67965718 5 13 C-0.74031891 4.738041 -0.74031891 4.738041 0 0 Z " fill="#CA6A2F" transform="translate(91,169)"/>
<path d="M0 0 C1.10844919 3.32534757 0.84454356 5.62182575 0 9 C0.99 8.67 1.98 8.34 3 8 C3 8.99 3 9.98 3 11 C1.35 11.33 -0.3 11.66 -2 12 C-2.17835515 7.45194365 -1.99785435 4.1205746 0 0 Z " fill="#DF6116" transform="translate(192,145)"/>
<path d="M0 0 C1.64952428 3.29904856 0.96100202 5.51636769 0 9 C-2.2291001 10.84421951 -4.32993244 11.78633293 -7 13 C-5.35821735 8.22390502 -2.73453298 4.20617096 0 0 Z " fill="#D4621C" transform="translate(224,86)"/>
<path d="M0 0 C1.5625 1.1875 1.5625 1.1875 3 3 C2.73897585 6.48032201 1.96602468 8.05096298 0 11 C-0.66 10.67 -1.32 10.34 -2 10 C-1.54177532 6.53058454 -1.10868317 3.32604951 0 0 Z " fill="#CF672B" transform="translate(183,170)"/>
<path d="M0 0 C0.99 0.33 1.98 0.66 3 1 C1.68 3.97 0.36 6.94 -1 10 C-1.99 10 -2.98 10 -4 10 C-2.8905928 6.51329166 -1.73662334 3.22515763 0 0 Z " fill="#C26B37" transform="translate(215,92)"/>
<path d="M0 0 C0.33 0.99 0.66 1.98 1 3 C0.525625 3.391875 0.05125 3.78375 -0.4375 4.1875 C-2.2240785 5.93228862 -2.2240785 5.93228862 -2.375 8.5625 C-2.58125 9.366875 -2.7875 10.17125 -3 11 C-5.5625 12.3125 -5.5625 12.3125 -8 13 C-6.40956621 7.91061189 -3.2553049 4.12543357 0 0 Z " fill="#D26220" transform="translate(259,32)"/>
<path d="M0 0 C-0.61538462 5.53846154 -0.61538462 5.53846154 -2.5625 7.875 C-3.2740625 8.431875 -3.2740625 8.431875 -4 9 C-3.67 7.02 -3.34 5.04 -3 3 C-4.65 3.33 -6.3 3.66 -8 4 C-5.29881977 1.17603885 -4.05589853 0 0 0 Z " fill="#CC692D" transform="translate(288,13)"/>
<path d="M0 0 C3.30979968 2.81332973 5.1048141 6.141943 7 10 C6.609375 12.22265625 6.609375 12.22265625 6 14 C4.9923048 12.2335343 3.99408286 10.46166177 3 8.6875 C2.443125 7.70136719 1.88625 6.71523437 1.3125 5.69921875 C0 3 0 3 0 0 Z " fill="#BD8055" transform="translate(78,147)"/>
<path d="M0 0 C1.65 0 3.3 0 5 0 C5 0.66 5 1.32 5 2 C6.32 2.33 7.64 2.66 9 3 C6.35261084 4.4606285 5.10551666 5 2 5 C2 4.01 2 3.02 2 2 C1.34 2 0.68 2 0 2 C0 1.34 0 0.68 0 0 Z " fill="#E35D0F" transform="translate(245,250)"/>
<path d="M0 0 C1.98 0 3.96 0 6 0 C6.33 0.99 6.66 1.98 7 3 C9.97 3.495 9.97 3.495 13 4 C8.79788161 5.40070613 5.66690632 4.76587588 1.6875 2.9375 C0.8521875 2.4734375 0.8521875 2.4734375 0 2 C0 1.34 0 0.68 0 0 Z " fill="#D76119" transform="translate(208,227)"/>
<path d="M0 0 C0.33 0.66 0.66 1.32 1 2 C0.22265625 4.1640625 0.22265625 4.1640625 -0.9375 6.625 C-1.31777344 7.44226563 -1.69804687 8.25953125 -2.08984375 9.1015625 C-2.39019531 9.72804687 -2.69054687 10.35453125 -3 11 C-5 8 -5 8 -4.8125 5.875 C-4.544375 5.25625 -4.27625 4.6375 -4 4 C-3.01 3.67 -2.02 3.34 -1 3 C-0.67 2.01 -0.34 1.02 0 0 Z " fill="#D7641F" transform="translate(238,139)"/>
<path d="M0 0 C1.65 0 3.3 0 5 0 C4.67 0.66 4.34 1.32 4 2 C3.34 2 2.68 2 2 2 C2.0825 2.886875 2.165 3.77375 2.25 4.6875 C1.94791837 8.69008159 0.70272533 10.12835434 -2 13 C-1 9 -1 9 -0.4375 7.0625 C0.07066883 4.66684693 0.06783326 2.44199733 0 0 Z " fill="#DC6117" transform="translate(278,51)"/>
<path d="M0 0 C0.66 0 1.32 0 2 0 C3.32 2.64 4.64 5.28 6 8 C4.35 8 2.7 8 1 8 C0.67 5.36 0.34 2.72 0 0 Z " fill="#D16626" transform="translate(158,181)"/>
<path d="M0 0 C1.32 0 2.64 0 4 0 C4 0.99 4 1.98 4 3 C3.34 3 2.68 3 2 3 C1.67 4.32 1.34 5.64 1 7 C-0.32 7 -1.64 7 -3 7 C-3 6.34 -3 5.68 -3 5 C-2.34 5 -1.68 5 -1 5 C-0.67 3.35 -0.34 1.7 0 0 Z " fill="#E6661D" transform="translate(255,295)"/>
<path d="M0 0 C0 2.31 0 4.62 0 7 C-0.99 7 -1.98 7 -3 7 C-3 6.01 -3 5.02 -3 4 C-3.66 3.67 -4.32 3.34 -5 3 C-2.25 0 -2.25 0 0 0 Z " fill="#DA6017" transform="translate(243,47)"/>
<path d="M0 0 C2.64 0 5.28 0 8 0 C8 1.65 8 3.3 8 5 C7.01 5 6.02 5 5 5 C5 4.34 5 3.68 5 3 C3.68 3 2.36 3 1 3 C0.67 2.01 0.34 1.02 0 0 Z " fill="#CF682D" transform="translate(167,188)"/>
<path d="M0 0 C0.99 0 1.98 0 3 0 C6 5.75 6 5.75 6 8 C5.34 8 4.68 8 4 8 C0 3.64705882 0 3.64705882 0 0 Z " fill="#D7621B" transform="translate(103,91)"/>
<path d="M0 0 C0.99 0.33 1.98 0.66 3 1 C3 1.99 3 2.98 3 4 C3.99 4.66 4.98 5.32 6 6 C5.01 7.32 4.02 8.64 3 10 C0 3.375 0 3.375 0 0 Z " fill="#DD6018" transform="translate(51,75)"/>
<path d="M0 0 C1.32 0.33 2.64 0.66 4 1 C3.67 3.31 3.34 5.62 3 8 C2.34 8 1.68 8 1 8 C0.67 5.36 0.34 2.72 0 0 Z " fill="#E45C0E" transform="translate(166,298)"/>
<path d="M0 0 C2.475 0.495 2.475 0.495 5 1 C5 3.64 5 6.28 5 9 C4.34 7.68 3.68 6.36 3 5 C2.01 5.495 2.01 5.495 1 6 C1.33 5.01 1.66 4.02 2 3 C1.34 2.67 0.68 2.34 0 2 C0 1.34 0 0.68 0 0 Z " fill="#CA7A4B" transform="translate(235,202)"/>
<path d="M0 0 C-0.165 0.886875 -0.33 1.77375 -0.5 2.6875 C-0.92995757 5.53596892 -1.08441035 8.13004802 -1 11 C-2.52299523 8.06279492 -3.80100302 5.0831351 -5 2 C-2 0 -2 0 0 0 Z " fill="#CF7134" transform="translate(296,24)"/>
<path d="M0 0 C1.65 0 3.3 0 5 0 C5 1.32 5 2.64 5 4 C6.32 4.33 7.64 4.66 9 5 C7.35 5.33 5.7 5.66 4 6 C3.67 5.01 3.34 4.02 3 3 C2.01 3 1.02 3 0 3 C0 2.01 0 1.02 0 0 Z " fill="#D36422" transform="translate(170,299)"/>
<path d="M0 0 C1.32 0 2.64 0 4 0 C4.66 2.64 5.32 5.28 6 8 C3.5625 6.8125 3.5625 6.8125 1 5 C0.1875 2.3125 0.1875 2.3125 0 0 Z " fill="#D16523" transform="translate(164,204)"/>
<path d="M0 0 C0.66 0 1.32 0 2 0 C3.75547734 2.6848477 4.00627277 3.92002215 3.75 7.1875 C3.5025 8.115625 3.255 9.04375 3 10 C2.01 10.495 2.01 10.495 1 11 C1.33 8.69 1.66 6.38 2 4 C1.34 4 0.68 4 0 4 C0 2.68 0 1.36 0 0 Z " fill="#CE6726" transform="translate(282,190)"/>
<path d="M0 0 C1.485 0.99 1.485 0.99 3 2 C3.375 5 3.375 5 3 8 C2.01 8.66 1.02 9.32 0 10 C-0.33 8.68 -0.66 7.36 -1 6 C-0.34 6 0.32 6 1 6 C0.67 4.02 0.34 2.04 0 0 Z " fill="#EC5A0E" transform="translate(145,167)"/>
<path d="M0 0 C0.33 0 0.66 0 1 0 C0.50269348 4.97306516 -0.55302334 8.63799813 -3 13 C-4.31223496 9.06329512 -3.24296256 6.87511856 -2 3 C-1.34 3 -0.68 3 0 3 C0 2.01 0 1.02 0 0 Z " fill="#DC631A" transform="translate(243,126)"/>
<path d="M0 0 C0.99 0 1.98 0 3 0 C3 0.99 3 1.98 3 3 C3.66 3.33 4.32 3.66 5 4 C4.67 5.65 4.34 7.3 4 9 C1.49701566 6.06171403 0.53069061 3.82097239 0 0 Z " fill="#D9631E" transform="translate(57,96)"/>
<path d="M0 0 C1.65 0 3.3 0 5 0 C5 0.66 5 1.32 5 2 C4.071875 2.1546875 4.071875 2.1546875 3.125 2.3125 C0.63473516 2.87525373 0.63473516 2.87525373 -1 6 C-1.99 5.34 -2.98 4.68 -4 4 C-3.01 3.67 -2.02 3.34 -1 3 C-0.67 2.01 -0.34 1.02 0 0 Z " fill="#DD611A" transform="translate(217,233)"/>
<path d="M0 0 C0.99 0.33 1.98 0.66 3 1 C3 2.65 3 4.3 3 6 C2.01 6 1.02 6 0 6 C0 5.34 0 4.68 0 4 C-0.66 4 -1.32 4 -2 4 C-2 3.01 -2 2.02 -2 1 C-1.34 0.67 -0.68 0.34 0 0 Z " fill="#E16019" transform="translate(170,190)"/>
<path d="M0 0 C0.66 0 1.32 0 2 0 C2 2.31 2 4.62 2 7 C1.34 7 0.68 7 0 7 C-0.33 7.66 -0.66 8.32 -1 9 C-0.67 6.03 -0.34 3.06 0 0 Z " fill="#DB5E13" transform="translate(178,188)"/>
<path d="M0 0 C0.66 0 1.32 0 2 0 C1.34 2.31 0.68 4.62 0 7 C-0.99 6.67 -1.98 6.34 -3 6 C-2.67 4.68 -2.34 3.36 -2 2 C-1.34 2 -0.68 2 0 2 C0 1.34 0 0.68 0 0 Z " fill="#ED5D11" transform="translate(190,174)"/>
<path d="M0 0 C3 1 3 1 5 4 C4.625 6.1875 4.625 6.1875 4 8 C1 6 1 6 0.3125 2.875 C0.209375 1.92625 0.10625 0.9775 0 0 Z " fill="#DA5F17" transform="translate(123,107)"/>
<path d="M0 0 C-1.875 5.75 -1.875 5.75 -3 8 C-3.33 7.01 -3.66 6.02 -4 5 C-4.66 4.67 -5.32 4.34 -6 4 C-2.25 0 -2.25 0 0 0 Z " fill="#CB6D31" transform="translate(292,19)"/>
<path d="M0 0 C2.92879371 0.62759865 5.36095629 1.58622659 8 3 C5.08517222 3.80967438 3.53886783 4.21845993 0.6875 3.0625 C0.130625 2.711875 -0.42625 2.36125 -1 2 C-0.67 1.34 -0.34 0.68 0 0 Z " fill="#CB6E37" transform="translate(264,299)"/>
<path d="M0 0 C0.94875 0.350625 1.8975 0.70125 2.875 1.0625 C2.545 2.3825 2.215 3.7025 1.875 5.0625 C0.885 4.7325 -0.105 4.4025 -1.125 4.0625 C-0.465 4.0625 0.195 4.0625 0.875 4.0625 C0.875 3.0725 0.875 2.0825 0.875 1.0625 C0.25625 1.26875 -0.3625 1.475 -1 1.6875 C-1.70125 1.81125 -2.4025 1.935 -3.125 2.0625 C-3.785 1.4025 -4.445 0.7425 -5.125 0.0625 C-3.125 -0.9375 -3.125 -0.9375 0 0 Z " fill="#D06A29" transform="translate(127.125,245.9375)"/>
<path d="M0 0 C0.66 0 1.32 0 2 0 C2 0.66 2 1.32 2 2 C2.99 2.33 3.98 2.66 5 3 C4.67 3.99 4.34 4.98 4 6 C1 5 1 5 -0.1875 2.9375 C-0.5896875 1.9784375 -0.5896875 1.9784375 -1 1 C-0.67 0.67 -0.34 0.34 0 0 Z " fill="#E6681E" transform="translate(121,248)"/>
<path d="M0 0 C0.66 0.33 1.32 0.66 2 1 C1.67 1.99 1.34 2.98 1 4 C-1.64 4.33 -4.28 4.66 -7 5 C-4.88437775 2.67281553 -2.94982021 1.14186589 0 0 Z " fill="#D96018" transform="translate(49,237)"/>
<path d="M0 0 C1.98 0.495 1.98 0.495 4 1 C2.68 3.64 1.36 6.28 0 9 C-1.15941038 5.52176885 -0.70820884 3.54104422 0 0 Z " fill="#D16729" transform="translate(253,102)"/>
<path d="M0 0 C0.33 0 0.66 0 1 0 C1.12375 0.78375 1.2475 1.5675 1.375 2.375 C1.79117993 5.14057822 1.79117993 5.14057822 4 7 C1.0625 6.625 1.0625 6.625 -2 6 C-2.33 5.34 -2.66 4.68 -3 4 C-2.34 3.67 -1.68 3.34 -1 3 C-0.67 2.01 -0.34 1.02 0 0 Z " fill="#DA611B" transform="translate(243,249)"/>
<path d="M0 0 C0 0.99 0 1.98 0 3 C0.99 3.66 1.98 4.32 3 5 C1.68 5.33 0.36 5.66 -1 6 C-1.99 4.68 -2.98 3.36 -4 2 C-2.68 1.34 -1.36 0.68 0 0 Z " fill="#E65E13" transform="translate(57,214)"/>
<path d="M0 0 C1.25541557 3.76624671 0.37061958 5.37188934 -1 9 C-1.99 9 -2.98 9 -4 9 C-2.80100302 5.9168649 -1.52299523 2.93720508 0 0 Z " fill="#F4620C" transform="translate(195,162)"/>
<path d="M0 0 C1.74627478 2.61941217 2.38722388 4.03824877 3 7 C2.01 7 1.02 7 0 7 C-0.38133299 5.0085944 -0.71325582 3.00720923 -1 1 C-0.67 0.67 -0.34 0.34 0 0 Z " fill="#D2672A" transform="translate(139,134)"/>
<path d="M0 0 C2.31 0.66 4.62 1.32 7 2 C7 2.99 7 3.98 7 5 C4.03 4.505 4.03 4.505 1 4 C0.67 2.68 0.34 1.36 0 0 Z " fill="#D9631C" transform="translate(72,53)"/>
<path d="M0 0 C0.66 0.33 1.32 0.66 2 1 C1.01 2.485 1.01 2.485 0 4 C-1.9453125 4.29296875 -1.9453125 4.29296875 -4.125 4.1875 C-5.40375 4.125625 -6.6825 4.06375 -8 4 C-5.31143836 2.20762558 -3.0466145 1.01553817 0 0 Z " fill="#D96220" transform="translate(59,233)"/>
<path d="M0 0 C-3 2 -3 2 -5.1875 1.625 C-5.785625 1.41875 -6.38375 1.2125 -7 1 C-7 1.66 -7 2.32 -7 3 C-7.99 2.67 -8.98 2.34 -10 2 C-10 1.34 -10 0.68 -10 0 C-6.30581799 -1.231394 -3.7943739 -0.64432764 0 0 Z " fill="#EA5B0B" transform="translate(168,189)"/>
<path d="M0 0 C0.66 0 1.32 0 2 0 C2.66 1.65 3.32 3.3 4 5 C3.01 5.99 2.02 6.98 1 8 C0.67 5.36 0.34 2.72 0 0 Z " fill="#C4713B" transform="translate(142,159)"/>
<path d="M0 0 C0.99 0 1.98 0 3 0 C2.67 0.99 2.34 1.98 2 3 C1.34 3 0.68 3 0 3 C-0.66 4.65 -1.32 6.3 -2 8 C-2.6875 6.25 -2.6875 6.25 -3 4 C-1.75 1.75 -1.75 1.75 0 0 Z " fill="#CA6C2B" transform="translate(231,150)"/>
<path d="M0 0 C2.50298434 2.93828597 3.46930939 5.17902761 4 9 C3.34 9 2.68 9 2 9 C2 8.01 2 7.02 2 6 C1.34 6 0.68 6 0 6 C0 4.02 0 2.04 0 0 Z " fill="#D46424" transform="translate(133,147)"/>
<path d="M0 0 C0.99 0 1.98 0 3 0 C1.52307692 4.67692308 1.52307692 4.67692308 -1.125 6.3125 C-2.053125 6.6528125 -2.053125 6.6528125 -3 7 C-3 4 -3 4 -1.5 2.375 C-1.005 1.92125 -0.51 1.4675 0 1 C0 0.67 0 0.34 0 0 Z " fill="#D9631D" transform="translate(287,42)"/>
<path d="M0 0 C1.32 0.33 2.64 0.66 4 1 C4 1.66 4 2.32 4 3 C2.68 2.34 1.36 1.68 0 1 C0 0.67 0 0.34 0 0 Z " fill="#C57546" transform="translate(224,190)"/>
<path d="M0 0 C0.66 0.66 1.32 1.32 2 2 C1.01 2 0.02 2 -1 2 C-0.67 1.34 -0.34 0.68 0 0 Z " fill="#B57961" transform="translate(222,198)"/>
<path d="M0 0 C0.99 0.495 0.99 0.495 2 1 C2 1.66 2 2.32 2 3 C1.34 3 0.68 3 0 3 C0 2.01 0 1.02 0 0 Z " fill="#C18D78" transform="translate(76,143)"/>
<path d="M0 0 C3 1 3 1 3 1 Z " fill="#B7A698" transform="translate(241,352)"/>
</svg>
